<svg width="100" height="139" viewBox="0 0 100 139" fill="none" xmlns="http://www.w3.org/2000/svg">
<g opacity="0.3">
<mask id="mask0_690_109" style="mask-type:alpha" maskUnits="userSpaceOnUse" x="10" y="0" width="14" height="13">
<path d="M17.0003 12.6006C20.6432 12.6006 23.5964 9.77981 23.5964 6.30026C23.5964 2.82071 20.6432 0 17.0003 0C13.3574 0 10.4043 2.82071 10.4043 6.30026C10.4043 9.77981 13.3574 12.6006 17.0003 12.6006Z" fill="url(#paint0_linear_690_109)"/>
</mask>
<g mask="url(#mask0_690_109)">
<path d="M17.0003 12.6006C20.6432 12.6006 23.5964 9.77981 23.5964 6.30026C23.5964 2.82071 20.6432 0 17.0003 0C13.3574 0 10.4043 2.82071 10.4043 6.30026C10.4043 9.77981 13.3574 12.6006 17.0003 12.6006Z" fill="url(#paint1_linear_690_109)"/>
</g>
<mask id="mask1_690_109" style="mask-type:alpha" maskUnits="userSpaceOnUse" x="48" y="0" width="14" height="13">
<path d="M55.2025 12.6006C58.8454 12.6006 61.7985 9.77981 61.7985 6.30026C61.7985 2.82071 58.8454 0 55.2025 0C51.5596 0 48.6064 2.82071 48.6064 6.30026C48.6064 9.77981 51.5596 12.6006 55.2025 12.6006Z" fill="url(#paint2_linear_690_109)"/>
</mask>
<g mask="url(#mask1_690_109)">
<path d="M55.2025 12.6006C58.8454 12.6006 61.7985 9.77981 61.7985 6.30026C61.7985 2.82071 58.8454 0 55.2025 0C51.5596 0 48.6064 2.82071 48.6064 6.30026C48.6064 9.77981 51.5596 12.6006 55.2025 12.6006Z" fill="url(#paint3_linear_690_109)"/>
</g>
<mask id="mask2_690_109" style="mask-type:alpha" maskUnits="userSpaceOnUse" x="86" y="0" width="14" height="13">
<path d="M93.4036 12.6006C97.0465 12.6006 99.9997 9.77981 99.9997 6.30026C99.9997 2.82071 97.0465 0 93.4036 0C89.7607 0 86.8076 2.82071 86.8076 6.30026C86.8076 9.77981 89.7607 12.6006 93.4036 12.6006Z" fill="url(#paint4_linear_690_109)"/>
</mask>
<g mask="url(#mask2_690_109)">
<path d="M93.4036 12.6006C97.0465 12.6006 99.9997 9.77981 99.9997 6.30026C99.9997 2.82071 97.0465 0 93.4036 0C89.7607 0 86.8076 2.82071 86.8076 6.30026C86.8076 9.77981 89.7607 12.6006 93.4036 12.6006Z" fill="url(#paint5_linear_690_109)"/>
</g>
<mask id="mask3_690_109" style="mask-type:alpha" maskUnits="userSpaceOnUse" x="10" y="31" width="14" height="14">
<path d="M17.0003 44.2332C20.6432 44.2332 23.5964 41.4125 23.5964 37.9329C23.5964 34.4534 20.6432 31.6327 17.0003 31.6327C13.3574 31.6327 10.4043 34.4534 10.4043 37.9329C10.4043 41.4125 13.3574 44.2332 17.0003 44.2332Z" fill="url(#paint6_linear_690_109)"/>
</mask>
<g mask="url(#mask3_690_109)">
<path d="M17.0003 44.2332C20.6432 44.2332 23.5964 41.4125 23.5964 37.9329C23.5964 34.4534 20.6432 31.6327 17.0003 31.6327C13.3574 31.6327 10.4043 34.4534 10.4043 37.9329C10.4043 41.4125 13.3574 44.2332 17.0003 44.2332Z" fill="url(#paint7_linear_690_109)"/>
</g>
<mask id="mask4_690_109" style="mask-type:alpha" maskUnits="userSpaceOnUse" x="48" y="31" width="14" height="14">
<path d="M55.2025 44.2332C58.8454 44.2332 61.7985 41.4125 61.7985 37.9329C61.7985 34.4534 58.8454 31.6327 55.2025 31.6327C51.5596 31.6327 48.6064 34.4534 48.6064 37.9329C48.6064 41.4125 51.5596 44.2332 55.2025 44.2332Z" fill="url(#paint8_linear_690_109)"/>
</mask>
<g mask="url(#mask4_690_109)">
<path d="M55.2025 44.2332C58.8454 44.2332 61.7985 41.4125 61.7985 37.9329C61.7985 34.4534 58.8454 31.6327 55.2025 31.6327C51.5596 31.6327 48.6064 34.4534 48.6064 37.9329C48.6064 41.4125 51.5596 44.2332 55.2025 44.2332Z" fill="url(#paint9_linear_690_109)"/>
</g>
<mask id="mask5_690_109" style="mask-type:alpha" maskUnits="userSpaceOnUse" x="86" y="31" width="14" height="14">
<path d="M93.4036 44.2332C97.0465 44.2332 99.9997 41.4125 99.9997 37.9329C99.9997 34.4534 97.0465 31.6327 93.4036 31.6327C89.7607 31.6327 86.8076 34.4534 86.8076 37.9329C86.8076 41.4125 89.7607 44.2332 93.4036 44.2332Z" fill="url(#paint10_linear_690_109)"/>
</mask>
<g mask="url(#mask5_690_109)">
<path d="M93.4036 44.2332C97.0465 44.2332 99.9997 41.4125 99.9997 37.9329C99.9997 34.4534 97.0465 31.6327 93.4036 31.6327C89.7607 31.6327 86.8076 34.4534 86.8076 37.9329C86.8076 41.4125 89.7607 44.2332 93.4036 44.2332Z" fill="url(#paint11_linear_690_109)"/>
</g>
<mask id="mask6_690_109" style="mask-type:alpha" maskUnits="userSpaceOnUse" x="10" y="63" width="14" height="13">
<path d="M17.0003 75.8003C20.6432 75.8003 23.5964 72.9796 23.5964 69.5C23.5964 66.0204 20.6432 63.1997 17.0003 63.1997C13.3574 63.1997 10.4043 66.0204 10.4043 69.5C10.4043 72.9796 13.3574 75.8003 17.0003 75.8003Z" fill="url(#paint12_linear_690_109)"/>
</mask>
<g mask="url(#mask6_690_109)">
<path d="M17.0003 75.8003C20.6432 75.8003 23.5964 72.9796 23.5964 69.5C23.5964 66.0204 20.6432 63.1997 17.0003 63.1997C13.3574 63.1997 10.4043 66.0204 10.4043 69.5C10.4043 72.9796 13.3574 75.8003 17.0003 75.8003Z" fill="url(#paint13_linear_690_109)"/>
</g>
<mask id="mask7_690_109" style="mask-type:alpha" maskUnits="userSpaceOnUse" x="48" y="63" width="14" height="13">
<path d="M55.2025 75.8003C58.8454 75.8003 61.7985 72.9796 61.7985 69.5C61.7985 66.0204 58.8454 63.1997 55.2025 63.1997C51.5596 63.1997 48.6064 66.0204 48.6064 69.5C48.6064 72.9796 51.5596 75.8003 55.2025 75.8003Z" fill="url(#paint14_linear_690_109)"/>
</mask>
<g mask="url(#mask7_690_109)">
<path d="M55.2025 75.8003C58.8454 75.8003 61.7985 72.9796 61.7985 69.5C61.7985 66.0204 58.8454 63.1997 55.2025 63.1997C51.5596 63.1997 48.6064 66.0204 48.6064 69.5C48.6064 72.9796 51.5596 75.8003 55.2025 75.8003Z" fill="url(#paint15_linear_690_109)"/>
</g>
<mask id="mask8_690_109" style="mask-type:alpha" maskUnits="userSpaceOnUse" x="86" y="63" width="14" height="13">
<path d="M93.4036 75.8003C97.0465 75.8003 99.9997 72.9796 99.9997 69.5C99.9997 66.0204 97.0465 63.1997 93.4036 63.1997C89.7607 63.1997 86.8076 66.0204 86.8076 69.5C86.8076 72.9796 89.7607 75.8003 93.4036 75.8003Z" fill="url(#paint16_linear_690_109)"/>
</mask>
<g mask="url(#mask8_690_109)">
<path d="M93.4036 75.8003C97.0465 75.8003 99.9997 72.9796 99.9997 69.5C99.9997 66.0204 97.0465 63.1997 93.4036 63.1997C89.7607 63.1997 86.8076 66.0204 86.8076 69.5C86.8076 72.9796 89.7607 75.8003 93.4036 75.8003Z" fill="url(#paint17_linear_690_109)"/>
</g>
<mask id="mask9_690_109" style="mask-type:alpha" maskUnits="userSpaceOnUse" x="10" y="94" width="14" height="14">
<path d="M17.0003 107.433C20.6432 107.433 23.5964 104.612 23.5964 101.133C23.5964 97.653 20.6432 94.8323 17.0003 94.8323C13.3574 94.8323 10.4043 97.653 10.4043 101.133C10.4043 104.612 13.3574 107.433 17.0003 107.433Z" fill="url(#paint18_linear_690_109)"/>
</mask>
<g mask="url(#mask9_690_109)">
<path d="M17.0003 107.433C20.6432 107.433 23.5964 104.612 23.5964 101.133C23.5964 97.653 20.6432 94.8323 17.0003 94.8323C13.3574 94.8323 10.4043 97.653 10.4043 101.133C10.4043 104.612 13.3574 107.433 17.0003 107.433Z" fill="url(#paint19_linear_690_109)"/>
</g>
<mask id="mask10_690_109" style="mask-type:alpha" maskUnits="userSpaceOnUse" x="48" y="94" width="14" height="14">
<path d="M55.2025 107.433C58.8454 107.433 61.7985 104.612 61.7985 101.133C61.7985 97.653 58.8454 94.8323 55.2025 94.8323C51.5596 94.8323 48.6064 97.653 48.6064 101.133C48.6064 104.612 51.5596 107.433 55.2025 107.433Z" fill="url(#paint20_linear_690_109)"/>
</mask>
<g mask="url(#mask10_690_109)">
<path d="M55.2025 107.433C58.8454 107.433 61.7985 104.612 61.7985 101.133C61.7985 97.653 58.8454 94.8323 55.2025 94.8323C51.5596 94.8323 48.6064 97.653 48.6064 101.133C48.6064 104.612 51.5596 107.433 55.2025 107.433Z" fill="url(#paint21_linear_690_109)"/>
</g>
<mask id="mask11_690_109" style="mask-type:alpha" maskUnits="userSpaceOnUse" x="86" y="94" width="14" height="14">
<path d="M93.4036 107.433C97.0465 107.433 99.9997 104.612 99.9997 101.133C99.9997 97.653 97.0465 94.8323 93.4036 94.8323C89.7607 94.8323 86.8076 97.653 86.8076 101.133C86.8076 104.612 89.7607 107.433 93.4036 107.433Z" fill="url(#paint22_linear_690_109)"/>
</mask>
<g mask="url(#mask11_690_109)">
<path d="M93.4036 107.433C97.0465 107.433 99.9997 104.612 99.9997 101.133C99.9997 97.653 97.0465 94.8323 93.4036 94.8323C89.7607 94.8323 86.8076 97.653 86.8076 101.133C86.8076 104.612 89.7607 107.433 93.4036 107.433Z" fill="url(#paint23_linear_690_109)"/>
</g>
<mask id="mask12_690_109" style="mask-type:alpha" maskUnits="userSpaceOnUse" x="10" y="126" width="14" height="13">
<path d="M17.0003 139C20.6432 139 23.5964 136.179 23.5964 132.7C23.5964 129.22 20.6432 126.399 17.0003 126.399C13.3574 126.399 10.4043 129.22 10.4043 132.7C10.4043 136.179 13.3574 139 17.0003 139Z" fill="url(#paint24_linear_690_109)"/>
</mask>
<g mask="url(#mask12_690_109)">
<path d="M17.0003 139C20.6432 139 23.5964 136.179 23.5964 132.7C23.5964 129.22 20.6432 126.399 17.0003 126.399C13.3574 126.399 10.4043 129.22 10.4043 132.7C10.4043 136.179 13.3574 139 17.0003 139Z" fill="url(#paint25_linear_690_109)"/>
</g>
<mask id="mask13_690_109" style="mask-type:alpha" maskUnits="userSpaceOnUse" x="48" y="126" width="14" height="13">
<path d="M55.2025 139C58.8454 139 61.7985 136.179 61.7985 132.7C61.7985 129.22 58.8454 126.399 55.2025 126.399C51.5596 126.399 48.6064 129.22 48.6064 132.7C48.6064 136.179 51.5596 139 55.2025 139Z" fill="url(#paint26_linear_690_109)"/>
</mask>
<g mask="url(#mask13_690_109)">
<path d="M55.2025 139C58.8454 139 61.7985 136.179 61.7985 132.7C61.7985 129.22 58.8454 126.399 55.2025 126.399C51.5596 126.399 48.6064 129.22 48.6064 132.7C48.6064 136.179 51.5596 139 55.2025 139Z" fill="url(#paint27_linear_690_109)"/>
</g>
<mask id="mask14_690_109" style="mask-type:alpha" maskUnits="userSpaceOnUse" x="86" y="126" width="14" height="13">
<path d="M93.4036 139C97.0465 139 99.9997 136.179 99.9997 132.7C99.9997 129.22 97.0465 126.399 93.4036 126.399C89.7607 126.399 86.8076 129.22 86.8076 132.7C86.8076 136.179 89.7607 139 93.4036 139Z" fill="url(#paint28_linear_690_109)"/>
</mask>
<g mask="url(#mask14_690_109)">
<path d="M93.4036 139C97.0465 139 99.9997 136.179 99.9997 132.7C99.9997 129.22 97.0465 126.399 93.4036 126.399C89.7607 126.399 86.8076 129.22 86.8076 132.7C86.8076 136.179 89.7607 139 93.4036 139Z" fill="url(#paint29_linear_690_109)"/>
</g>
</g>
<defs>
<linearGradient id="paint0_linear_690_109" x1="69.5002" y1="133.623" x2="-14.1018" y2="-88.5597" gradientUnits="userSpaceOnUse">
<stop/>
<stop offset="1" stop-color="white"/>
</linearGradient>
<linearGradient id="paint1_linear_690_109" x1="69.5002" y1="133.623" x2="-14.1018" y2="-88.5597" gradientUnits="userSpaceOnUse">
<stop stop-color="#97C3F9"/>
<stop offset="1" stop-color="#93C1F9"/>
</linearGradient>
<linearGradient id="paint2_linear_690_109" x1="102.559" y1="121.183" x2="18.957" y2="-100.999" gradientUnits="userSpaceOnUse">
<stop/>
<stop offset="1" stop-color="white"/>
</linearGradient>
<linearGradient id="paint3_linear_690_109" x1="102.559" y1="121.183" x2="18.957" y2="-100.999" gradientUnits="userSpaceOnUse">
<stop stop-color="#97C3F9"/>
<stop offset="1" stop-color="#93C1F9"/>
</linearGradient>
<linearGradient id="paint4_linear_690_109" x1="135.617" y1="108.744" x2="52.015" y2="-113.439" gradientUnits="userSpaceOnUse">
<stop/>
<stop offset="1" stop-color="white"/>
</linearGradient>
<linearGradient id="paint5_linear_690_109" x1="135.617" y1="108.744" x2="52.015" y2="-113.439" gradientUnits="userSpaceOnUse">
<stop stop-color="#97C3F9"/>
<stop offset="1" stop-color="#93C1F9"/>
</linearGradient>
<linearGradient id="paint6_linear_690_109" x1="58.2185" y1="137.866" x2="-25.3821" y2="-84.3145" gradientUnits="userSpaceOnUse">
<stop/>
<stop offset="1" stop-color="white"/>
</linearGradient>
<linearGradient id="paint7_linear_690_109" x1="58.2185" y1="137.866" x2="-25.3821" y2="-84.3145" gradientUnits="userSpaceOnUse">
<stop stop-color="#97C3F9"/>
<stop offset="1" stop-color="#93C1F9"/>
</linearGradient>
<linearGradient id="paint8_linear_690_109" x1="91.2775" y1="125.427" x2="7.67688" y2="-96.7537" gradientUnits="userSpaceOnUse">
<stop/>
<stop offset="1" stop-color="white"/>
</linearGradient>
<linearGradient id="paint9_linear_690_109" x1="91.2775" y1="125.427" x2="7.67688" y2="-96.7537" gradientUnits="userSpaceOnUse">
<stop stop-color="#97C3F9"/>
<stop offset="1" stop-color="#93C1F9"/>
</linearGradient>
<linearGradient id="paint10_linear_690_109" x1="124.336" y1="112.988" x2="40.735" y2="-109.193" gradientUnits="userSpaceOnUse">
<stop/>
<stop offset="1" stop-color="white"/>
</linearGradient>
<linearGradient id="paint11_linear_690_109" x1="124.336" y1="112.988" x2="40.735" y2="-109.193" gradientUnits="userSpaceOnUse">
<stop stop-color="#97C3F9"/>
<stop offset="1" stop-color="#93C1F9"/>
</linearGradient>
<linearGradient id="paint12_linear_690_109" x1="46.937" y1="142.112" x2="-36.665" y2="-80.0701" gradientUnits="userSpaceOnUse">
<stop/>
<stop offset="1" stop-color="white"/>
</linearGradient>
<linearGradient id="paint13_linear_690_109" x1="46.937" y1="142.112" x2="-36.665" y2="-80.0701" gradientUnits="userSpaceOnUse">
<stop stop-color="#97C3F9"/>
<stop offset="1" stop-color="#93C1F9"/>
</linearGradient>
<linearGradient id="paint14_linear_690_109" x1="79.996" y1="129.673" x2="-3.60611" y2="-92.5096" gradientUnits="userSpaceOnUse">
<stop/>
<stop offset="1" stop-color="white"/>
</linearGradient>
<linearGradient id="paint15_linear_690_109" x1="79.996" y1="129.673" x2="-3.60611" y2="-92.5096" gradientUnits="userSpaceOnUse">
<stop stop-color="#97C3F9"/>
<stop offset="1" stop-color="#93C1F9"/>
</linearGradient>
<linearGradient id="paint16_linear_690_109" x1="113.054" y1="117.234" x2="29.452" y2="-104.949" gradientUnits="userSpaceOnUse">
<stop/>
<stop offset="1" stop-color="white"/>
</linearGradient>
<linearGradient id="paint17_linear_690_109" x1="113.054" y1="117.234" x2="29.452" y2="-104.949" gradientUnits="userSpaceOnUse">
<stop stop-color="#97C3F9"/>
<stop offset="1" stop-color="#93C1F9"/>
</linearGradient>
<linearGradient id="paint18_linear_690_109" x1="35.6555" y1="146.357" x2="-47.9466" y2="-75.8253" gradientUnits="userSpaceOnUse">
<stop/>
<stop offset="1" stop-color="white"/>
</linearGradient>
<linearGradient id="paint19_linear_690_109" x1="35.6555" y1="146.357" x2="-47.9466" y2="-75.8253" gradientUnits="userSpaceOnUse">
<stop stop-color="#97C3F9"/>
<stop offset="1" stop-color="#93C1F9"/>
</linearGradient>
<linearGradient id="paint20_linear_690_109" x1="68.7145" y1="133.918" x2="-14.8876" y2="-88.2647" gradientUnits="userSpaceOnUse">
<stop/>
<stop offset="1" stop-color="white"/>
</linearGradient>
<linearGradient id="paint21_linear_690_109" x1="68.7145" y1="133.918" x2="-14.8876" y2="-88.2647" gradientUnits="userSpaceOnUse">
<stop stop-color="#97C3F9"/>
<stop offset="1" stop-color="#93C1F9"/>
</linearGradient>
<linearGradient id="paint22_linear_690_109" x1="101.773" y1="121.479" x2="18.1705" y2="-100.704" gradientUnits="userSpaceOnUse">
<stop/>
<stop offset="1" stop-color="white"/>
</linearGradient>
<linearGradient id="paint23_linear_690_109" x1="101.773" y1="121.479" x2="18.1705" y2="-100.704" gradientUnits="userSpaceOnUse">
<stop stop-color="#97C3F9"/>
<stop offset="1" stop-color="#93C1F9"/>
</linearGradient>
<linearGradient id="paint24_linear_690_109" x1="24.374" y1="150.602" x2="-59.228" y2="-71.5801" gradientUnits="userSpaceOnUse">
<stop/>
<stop offset="1" stop-color="white"/>
</linearGradient>
<linearGradient id="paint25_linear_690_109" x1="24.374" y1="150.602" x2="-59.228" y2="-71.5801" gradientUnits="userSpaceOnUse">
<stop stop-color="#97C3F9"/>
<stop offset="1" stop-color="#93C1F9"/>
</linearGradient>
<linearGradient id="paint26_linear_690_109" x1="57.433" y1="138.163" x2="-26.1691" y2="-84.0196" gradientUnits="userSpaceOnUse">
<stop/>
<stop offset="1" stop-color="white"/>
</linearGradient>
<linearGradient id="paint27_linear_690_109" x1="57.433" y1="138.163" x2="-26.1691" y2="-84.0196" gradientUnits="userSpaceOnUse">
<stop stop-color="#97C3F9"/>
<stop offset="1" stop-color="#93C1F9"/>
</linearGradient>
<linearGradient id="paint28_linear_690_109" x1="90.4911" y1="125.724" x2="6.88898" y2="-96.4589" gradientUnits="userSpaceOnUse">
<stop/>
<stop offset="1" stop-color="white"/>
</linearGradient>
<linearGradient id="paint29_linear_690_109" x1="90.4911" y1="125.724" x2="6.88898" y2="-96.4589" gradientUnits="userSpaceOnUse">
<stop stop-color="#97C3F9"/>
<stop offset="1" stop-color="#93C1F9"/>
</linearGradient>
</defs>
</svg>
