<svg width="111" height="88" viewBox="0 0 111 88" fill="none" xmlns="http://www.w3.org/2000/svg">
<path d="M46.9433 24.3237L46.9561 24.316L52.6616 21.0228V14.4184L52.6488 14.4107L46.9433 11.1174L46.9305 11.1251L41.2249 14.4184V21.0202L41.2377 21.0279L46.9433 24.3237ZM52.613 20.992L46.9458 24.2648L41.2787 20.992V14.4491L46.9458 11.1763L52.613 14.4491V20.992Z" fill="url(#paint0_linear_690_652)"/>
<path d="M35.558 24.3237L35.5708 24.316L41.2764 21.0228V14.4184L41.2636 14.4107L35.558 11.1174L35.5452 11.1251L29.8397 14.4184V21.0202L29.8525 21.0279L35.558 24.3237ZM41.2277 20.992L35.558 24.2648L29.8909 20.992V14.4491L35.558 11.1763L41.2251 14.4491V20.992H41.2277Z" fill="url(#paint1_linear_690_652)"/>
<path d="M24.1723 24.3237L24.1851 24.316L29.8906 21.0228V14.4184L29.8778 14.4107L24.1723 11.1174L24.1595 11.1251L18.4539 14.4184V21.0202L18.4667 21.0279L24.1723 24.3237ZM29.8394 20.992L24.1697 24.2648L18.5026 20.992V14.4491L24.1697 11.1763L29.8394 14.4491V20.992Z" fill="url(#paint2_linear_690_652)"/>
<path d="M12.7841 24.3237L12.7969 24.316L18.5024 21.0228V14.4184L18.4896 14.4107L12.7841 11.1174L12.7713 11.1251L7.06575 14.4184V21.0202L7.07855 21.0279L12.7841 24.3237ZM18.4538 20.992L12.7867 24.2648L7.11952 20.992V14.4491L12.7867 11.1763L18.4538 14.4491V20.992Z" fill="url(#paint3_linear_690_652)"/>
<path d="M0.000128746 23.4581L1.39835 24.2648L7.06804 20.992V14.4491L1.39835 11.1763L0.000128746 11.983V11.9241L1.38554 11.1251L1.39835 11.1174L7.1039 14.4132L7.1167 14.4184V21.0228L1.41115 24.316L1.39835 24.3237L0.000128746 23.517V23.4581Z" fill="url(#paint4_linear_690_652)"/>
<path d="M98.183 34.1829L98.1958 34.1752L103.901 30.882V24.2802L103.889 24.2725L98.183 20.9792L98.1702 20.9869L92.4647 24.2802V30.882L92.4775 30.8897L98.183 34.1829ZM103.85 30.8538L98.183 34.1266L92.5159 30.8538V24.3083L98.183 21.0356L103.85 24.3083V30.8538Z" fill="url(#paint5_linear_690_652)"/>
<path d="M41.2504 34.1829L41.2632 34.1752L46.9688 30.882V24.2802L46.9559 24.2725L41.2504 20.9792L41.2376 20.9869L35.532 24.2802V30.882L35.5449 30.8897L41.2504 34.1829ZM46.9201 30.8538L41.253 34.1266L35.5858 30.8538V24.3083L41.253 21.0356L46.9201 24.3083V30.8538Z" fill="url(#paint6_linear_690_652)"/>
<path d="M29.8651 34.1829L29.8779 34.1752L35.5835 30.882V24.2802L35.5707 24.2725L29.8651 20.9792L29.8523 20.9869L24.1468 24.2802V30.882L24.1596 30.8897L29.8651 34.1829ZM35.5323 30.8538L29.8651 34.1266L24.198 30.8538V24.3083L29.8651 21.0356L35.5323 24.3083V30.8538Z" fill="url(#paint7_linear_690_652)"/>
<path d="M18.4794 34.1827L18.4922 34.175L24.1978 30.8818V24.2799L24.1849 24.2722L18.4794 20.979L18.4666 20.9867L12.761 24.2799V30.8818L12.7739 30.8894L18.4794 34.1827ZM24.1465 30.8536L18.4794 34.1263L12.8123 30.8536V24.3081L18.4794 21.0353L24.1465 24.3081V30.8536Z" fill="url(#paint8_linear_690_652)"/>
<path d="M7.09121 34.1829L7.10402 34.1752L12.8096 30.882V24.2802L12.7968 24.2725L7.09121 20.9792L7.07841 20.9869L1.37287 24.2802V30.882L1.38567 30.8897L7.09121 34.1829ZM12.7609 30.8538L7.09378 34.1266L1.42664 30.8538V24.3083L7.09378 21.0356L12.7609 24.3083V30.8538Z" fill="url(#paint9_linear_690_652)"/>
<path d="M0.000491023 31.6476L1.37567 30.8537V24.3082L0.000491023 23.5169V23.458L1.41152 24.2724L1.42432 24.28V30.8819L0.000491023 31.7039V31.6476Z" fill="url(#paint10_linear_690_652)"/>
<path d="M24.1723 44.0445L24.1851 44.0368L29.8906 40.7436V34.1417L29.8778 34.1341L24.1723 30.8408L24.1595 30.8485L18.4539 34.1417V40.7436L18.4667 40.7513L24.1723 44.0445ZM29.8394 40.7154L24.1697 43.9882L18.5026 40.7154V34.1699L24.1697 30.8972L29.8394 34.1699V40.7154Z" fill="url(#paint11_linear_690_652)"/>
<path d="M12.7841 44.0445L12.7969 44.0368L18.5024 40.7436V34.1417L18.4896 34.1341L12.7841 30.8408L12.7713 30.8485L7.06575 34.1417V40.7436L7.07855 40.7513L12.7841 44.0445ZM18.4538 40.7154L12.7867 43.9882L7.11952 40.7154V34.1699L12.7867 30.8972L18.4538 34.1699V40.7154Z" fill="url(#paint12_linear_690_652)"/>
<path d="M0.000128746 43.1791L1.39835 43.9883L7.06804 40.7155V34.17L1.39835 30.8973L0.000128746 31.7039V31.6476L1.38554 30.8461L1.39835 30.8384L7.1039 34.1342L7.1167 34.1419V40.7437L1.41115 44.0369L1.39835 44.0446L0.000128746 43.238V43.1791Z" fill="url(#paint13_linear_690_652)"/>
<path d="M18.4794 53.9066L18.4922 53.8989L24.1978 50.6056V44.0038L24.1849 43.9961L18.4794 40.7029L18.4666 40.7106L12.761 44.0038V50.6056L12.7739 50.6133L18.4794 53.9066ZM24.1465 50.5749L18.4794 53.8477L12.8123 50.5749V44.0294L18.4794 40.7567L24.1465 44.0294V50.5749Z" fill="url(#paint14_linear_690_652)"/>
<path d="M7.09121 53.9066L7.10402 53.8989L12.8096 50.6056V44.0038L12.7968 43.9961L7.09121 40.7029L7.07841 40.7106L1.37287 44.0038V50.6056L1.38567 50.6133L7.09121 53.9066ZM12.7609 50.5749L7.09378 53.8477L1.42664 50.5749V44.0294L7.09121 40.7567L12.7584 44.0294V50.5749H12.7609Z" fill="url(#paint15_linear_690_652)"/>
<path d="M0.000491023 51.3685L1.37567 50.5747V44.0292L0.000491023 43.2379V43.179L1.41152 43.9933L1.42432 44.001V50.6028L0.000491023 51.4249V51.3685Z" fill="url(#paint16_linear_690_652)"/>
<path d="M92.4877 63.7657L92.5005 63.758L98.2061 60.4648V53.8629L98.1933 53.8552L92.4877 50.562L92.4749 50.5697L86.7694 53.8629V60.4648L86.7822 60.4725L92.4877 63.7657ZM98.1574 60.4366L92.4903 63.7094L86.8231 60.4366V53.8911L92.4903 50.6184L98.1574 53.8911V60.4366Z" fill="url(#paint17_linear_690_652)"/>
<path d="M12.7841 63.7657L12.7969 63.758L18.5024 60.4648V53.8629L18.4896 53.8552L12.7841 50.562L12.7713 50.5697L7.06575 53.8629V60.4648L7.07855 60.4725L12.7841 63.7657ZM18.4538 60.4366L12.7867 63.7094L7.11952 60.4366V53.8911L12.7867 50.6184L18.4538 53.8911V60.4366Z" fill="url(#paint18_linear_690_652)"/>
<path d="M0.000128746 62.9024L1.39835 63.7091L7.06804 60.4364V53.8909L1.39835 50.6181L0.000128746 51.4248V51.3684L1.38554 50.5669L1.39835 50.5618L7.1039 53.855L7.1167 53.8627V60.4645L1.41115 63.7578L1.39835 63.7655L0.000128746 62.9588V62.9024Z" fill="url(#paint19_linear_690_652)"/>
<path d="M98.183 73.6275L98.1958 73.6198L103.901 70.3266V63.7247L103.889 63.7171L98.183 60.4238L98.1702 60.4315L92.4647 63.7247V70.3266L92.4775 70.3343L98.183 73.6275ZM103.85 70.2959L98.183 73.5686L92.5159 70.2959V63.7529L98.183 60.4802L103.85 63.7529V70.2959Z" fill="url(#paint20_linear_690_652)"/>
<path d="M86.7948 73.6275L86.8076 73.6198L92.5132 70.3266V63.7247L92.5004 63.7171L86.7948 60.4238L86.782 60.4315L81.0765 63.7247V70.3266L81.0893 70.3343L86.7948 73.6275ZM92.4645 70.2959L86.7974 73.5686L81.1303 70.2959V63.7529L86.7974 60.4802L92.4645 63.7529V70.2959Z" fill="url(#paint21_linear_690_652)"/>
<path d="M75.4096 73.6275L75.4224 73.6198L81.1279 70.3266V63.7247L81.1151 63.7171L75.4096 60.4238L75.3968 60.4315L69.6912 63.7247V70.3266L69.704 70.3343L75.4096 73.6275ZM81.0793 70.2959L75.4121 73.5686L69.745 70.2959V63.7529L75.4121 60.4802L81.0793 63.7529V70.2959Z" fill="url(#paint22_linear_690_652)"/>
<path d="M64.0238 73.6275L64.0366 73.6198L69.7422 70.3266V63.7247L69.7294 63.7171L64.0238 60.4238L64.011 60.4315L58.3055 63.7247V70.3266L58.3183 70.3343L64.0238 73.6275ZM69.691 70.2959L64.0238 73.5686L58.3567 70.2959V63.7529L64.0238 60.4802L69.691 63.7529V70.2959Z" fill="url(#paint23_linear_690_652)"/>
<path d="M0.000491023 71.0896L1.37567 70.2957V63.7528L0.000491023 62.9589V62.9026L1.41152 63.7169L1.42432 63.7221V70.3265L0.000491023 71.1459V71.0896Z" fill="url(#paint24_linear_690_652)"/>
<path d="M92.4877 83.4866L92.5005 83.479L98.2061 80.1857V73.5839L98.1933 73.5762L92.4877 70.283L92.4749 70.2906L86.7694 73.5839V80.1857L86.7822 80.1934L92.4877 83.4866ZM98.1574 80.1575L92.4903 83.4303L86.8231 80.1575V73.612L92.4903 70.3393L98.1574 73.612V80.1575Z" fill="url(#paint25_linear_690_652)"/>
<path d="M81.102 83.4866L81.1148 83.479L86.8203 80.1857V73.5839L86.8075 73.5762L81.102 70.283L81.0892 70.2906L75.3836 73.5839V80.1857L75.3964 80.1934L81.102 83.4866ZM86.7717 80.1575L81.102 83.4303L75.4348 80.1575V73.612L81.102 70.3393L86.7717 73.612V80.1575Z" fill="url(#paint26_linear_690_652)"/>
<path d="M69.7167 83.4866L69.7295 83.479L75.4351 80.1857V73.5839L75.4223 73.5762L69.7167 70.283L69.7039 70.2906L63.9984 73.5839V80.1857L64.0112 80.1934L69.7167 83.4866ZM75.3838 80.1575L69.7167 83.4303L64.0496 80.1575V73.612L69.7167 70.3393L75.3838 73.612V80.1575Z" fill="url(#paint27_linear_690_652)"/>
<path d="M103.85 87.1716V83.4737L98.1831 80.201L92.5134 83.4737V87.1716H92.4648V83.4456L98.1703 80.1498L98.1831 80.1421L103.889 83.4379L103.899 83.4456V87.1716H103.85Z" fill="url(#paint28_linear_690_652)"/>
<path d="M92.4645 87.1716V83.4737L86.7948 80.201L81.1277 83.4737V87.1716H81.079V83.4456L86.782 80.1498L86.7948 80.1421L92.5004 83.4379L92.5132 83.4456V87.1716H92.4645Z" fill="url(#paint29_linear_690_652)"/>
<path d="M81.0793 87.1716V83.4737L75.4096 80.201L69.7424 83.4737V87.1716H69.6912V83.4456L75.3968 80.1498L75.4096 80.1421L81.1151 83.4379L81.1279 83.4456V87.1716H81.0793Z" fill="url(#paint30_linear_690_652)"/>
<path d="M69.691 87.1716V83.4737L64.0238 80.201L58.3541 83.4737V87.1716H58.3055V83.4456L64.011 80.1498L64.0238 80.1421L69.7294 83.4379L69.7422 83.4456V87.1716H69.691Z" fill="url(#paint31_linear_690_652)"/>
<path d="M24.1467 87.1716V83.4737L18.4795 80.201L12.8098 83.4737V87.1716H12.7612V83.4456L18.4667 80.1498L18.4795 80.1421L24.1851 83.4379L24.1953 83.4456V87.1716H24.1467Z" fill="url(#paint32_linear_690_652)"/>
<path d="M12.7609 87.1716V83.4737L7.09121 80.201L1.42408 83.4737V87.1716H1.37543V83.4456L7.08098 80.1498L7.09121 80.1421L12.7968 83.4379L12.8096 83.4456V87.1716H12.7609Z" fill="url(#paint33_linear_690_652)"/>
<path d="M25.9134 0.55127V6.15182L33.2041 10.3618L40.4948 6.15182V0.55127H40.7534V6.30035L33.2041 10.6589L25.6573 6.30035V0.55127H25.9134Z" fill="url(#paint34_linear_690_652)"/>
<path d="M11.0761 0.55127V6.15182L18.3668 10.3618L25.6575 6.15182V0.55127H25.9136V6.30035L18.3668 10.6589L10.8174 6.30035V0.55127H11.0761Z" fill="url(#paint35_linear_690_652)"/>
<path d="M10.8175 6.15182V0.55127H11.0762V6.30035L3.52683 10.6589L0.000546455 8.62303V8.32597L3.52683 10.3618L10.8175 6.15182Z" fill="url(#paint36_linear_690_652)"/>
<path d="M25.7856 23.5093L33.335 19.1507V10.4362L25.7856 6.07764L18.2363 10.4362V19.1533L25.7856 23.5093ZM33.0763 19.0047L25.7856 23.2148L18.4949 19.0047V10.5847L25.7856 6.37469L33.0763 10.5847V19.0047Z" fill="url(#paint37_linear_690_652)"/>
<path d="M10.9453 23.5093L18.4946 19.1507V10.4362L10.9453 6.07764L3.39593 10.4362V19.1533L10.9453 23.5093ZM18.236 19.0047L10.9453 23.2148L3.65458 19.0047V10.5847L10.9453 6.37469L18.236 10.5847V19.0047Z" fill="url(#paint38_linear_690_652)"/>
<path d="M0.000464439 20.9637L3.3987 19.0046V10.5846L0.000464439 8.62298V8.32593L3.65479 10.4361V19.1532L0.000464439 21.2607V20.9637Z" fill="url(#paint39_linear_690_652)"/>
<path d="M18.3667 36.3619L25.916 32.0034V23.2863L18.3667 18.9277L10.8173 23.2863V32.0034L18.3667 36.3619ZM25.6574 31.8548L18.3667 36.0649L11.076 31.8548V23.4348L18.3667 19.2248L25.6574 23.4348V31.8548Z" fill="url(#paint40_linear_690_652)"/>
<path d="M0.000546455 34.0291L3.52683 36.065L10.8175 31.855V23.4349L3.52683 19.2275L0.000546455 21.2608V20.9637L3.52683 18.9304L11.0762 23.2864V32.0035L3.52683 36.362L0.000546455 34.3262V34.0291Z" fill="url(#paint41_linear_690_652)"/>
<path d="M111 33.9856V34.2852L107.53 36.2878V44.7053L111 46.7078V47.0075L107.274 44.8538V36.1393L111 33.9856Z" fill="url(#paint42_linear_690_652)"/>
<path d="M99.9835 49.2123L107.53 44.8537V36.1366L99.9809 31.7781L92.4316 36.1366V44.8537L99.9835 49.2123ZM107.274 44.7052L99.9835 48.9152L92.6928 44.7052V36.2851L99.9835 32.0751L107.274 36.2851V44.7052Z" fill="url(#paint43_linear_690_652)"/>
<path d="M85.1435 49.2123L92.6929 44.8537V36.1366L85.1435 31.7781L77.5942 36.1366V44.8537L85.1435 49.2123ZM92.4342 44.7052L85.1435 48.9152L77.8528 44.7052V36.2851L85.1435 32.0751L92.4342 36.2877V44.7052Z" fill="url(#paint44_linear_690_652)"/>
<path d="M0.000464439 46.6668L3.3987 44.7052V36.2877L0.000464439 34.3261V34.0291L3.65479 36.1392V44.8537L0.000464439 46.9638V46.6668Z" fill="url(#paint45_linear_690_652)"/>
<path d="M107.402 44.6309L111 46.7077V47.0073L107.402 44.9279L100.111 49.1379V57.558L107.402 61.7654L111 59.6886V59.9856L107.402 62.065L99.8527 57.7065V48.9894L107.402 44.6309Z" fill="url(#paint46_linear_690_652)"/>
<path d="M92.562 62.065L100.111 57.7065V48.9894L92.562 44.6309L85.0126 48.9894V57.7065L92.562 62.065ZM99.8527 57.558L92.562 61.7654L85.2713 57.5554V49.1354L92.562 44.9279L99.8527 49.1379V57.558Z" fill="url(#paint47_linear_690_652)"/>
<path d="M77.7246 62.065L85.2739 57.7065V48.9894L77.7246 44.6309L70.1752 48.9894V57.7065L77.7246 62.065ZM85.0153 57.558L77.7246 61.768L70.4339 57.558V49.1379L77.7246 44.9279L85.0153 49.1379V57.558Z" fill="url(#paint48_linear_690_652)"/>
<path d="M111 59.6887V59.9858L107.53 61.9909V70.4084L111 72.411V72.708L107.274 70.5569V61.8398L111 59.6887Z" fill="url(#paint49_linear_690_652)"/>
<path d="M99.9834 74.9154L107.533 70.5568V61.8397L99.9834 57.4812L92.434 61.8397V70.5568L99.9834 74.9154ZM107.274 70.4083L99.9834 74.6183L92.6927 70.4083V61.9883L99.9834 57.7783L107.274 61.9883V70.4083Z" fill="url(#paint50_linear_690_652)"/>
<path d="M85.1435 74.9154L92.6929 70.5568V61.8397L85.1435 57.4812L77.5942 61.8397V70.5568L85.1435 74.9154ZM92.4342 70.4083L85.1435 74.6183L77.8528 70.4083V61.9883L85.1435 57.7783L92.4342 61.9908V70.4083Z" fill="url(#paint51_linear_690_652)"/>
<path d="M10.9453 74.9154L18.4946 70.5568V61.8397L10.9453 57.4812L3.39593 61.8397V70.5568L10.9453 74.9154ZM18.236 70.4083L10.9453 74.6183L3.65458 70.4083V61.9883L10.9453 57.7783L18.236 61.9883V70.4083Z" fill="url(#paint52_linear_690_652)"/>
<path d="M111 85.6889L108.431 87.1716H107.917L111 85.3918V85.6889Z" fill="url(#paint53_linear_690_652)"/>
<path d="M107.402 70.334L111 72.4108V72.7079L107.402 70.631L100.111 74.8411V83.2585L106.887 87.1715H106.373L99.8527 83.4096V74.6925L107.402 70.334Z" fill="url(#paint54_linear_690_652)"/>
<path d="M93.0767 87.1715L99.8527 83.2585V74.8411L92.562 70.631L85.2713 74.8411V83.2585L92.0472 87.1715H91.5325L85.0152 83.4096V74.6925L92.562 70.334L100.111 74.6925V83.4096L93.594 87.1715H93.0767Z" fill="url(#paint55_linear_690_652)"/>
<path d="M78.2394 87.1715L85.0154 83.2585V74.8411L77.7247 70.631L70.434 74.8411V83.2585L77.2074 87.1715H76.6927L70.1753 83.4096V74.6925L77.7247 70.334L85.2715 74.6925V83.4096L78.7542 87.1715H78.2394Z" fill="url(#paint56_linear_690_652)"/>
<path d="M18.8815 87.1715L25.6575 83.2585V74.8411L18.3668 70.631L11.0761 74.8411V83.2585L17.8495 87.1715H17.3348L10.8174 83.4096V74.6925L18.3668 70.334L25.9136 74.6925V83.4096L19.3962 87.1715H18.8815Z" fill="url(#paint57_linear_690_652)"/>
<path d="M3.52683 70.631L0.000546455 72.6669V72.3699L3.52683 70.334L11.0762 74.6925V83.4096L4.55628 87.1715H4.04155L10.8175 83.2585V74.8411L3.52683 70.631Z" fill="url(#paint58_linear_690_652)"/>
<path d="M0.000170469 85.4326L3.01172 87.1714H2.49699L0.000170469 85.7322V85.4326Z" fill="url(#paint59_linear_690_652)"/>
<path d="M111 85.3918V85.6889L108.431 87.1716H107.917L111 85.3918Z" fill="url(#paint60_linear_690_652)"/>
<path d="M106.372 87.1716L99.9832 83.4839L93.5939 87.1716H93.0766L99.9832 83.1843L106.887 87.1716H106.372Z" fill="url(#paint61_linear_690_652)"/>
<path d="M91.5326 87.1716L85.1433 83.4839L78.7541 87.1716H78.2393L85.1433 83.1843L92.0474 87.1716H91.5326Z" fill="url(#paint62_linear_690_652)"/>
<path d="M76.6923 87.1716L70.303 83.4839L63.9137 87.1716H63.399L70.303 83.1843L77.207 87.1716H76.6923Z" fill="url(#paint63_linear_690_652)"/>
<path d="M61.8523 87.1716L55.463 83.4839L49.0763 87.1716H48.559L55.463 83.1843L62.3696 87.1716H61.8523Z" fill="url(#paint64_linear_690_652)"/>
<path d="M47.0151 87.1716L40.6258 83.4839L34.2365 87.1716H33.7218L40.6258 83.1843L47.5298 87.1716H47.0151Z" fill="url(#paint65_linear_690_652)"/>
<path d="M32.1747 87.1716L25.7854 83.4839L19.3961 87.1716H18.8814L25.7854 83.1843L32.6895 87.1716H32.1747Z" fill="url(#paint66_linear_690_652)"/>
<path d="M17.3349 87.1716L10.9456 83.4839L4.5563 87.1716H4.04157L10.9456 83.1843L17.8496 87.1716H17.3349Z" fill="url(#paint67_linear_690_652)"/>
<path d="M0.000658751 85.4329L3.01221 87.1717H2.49748L0.000658751 85.7325V85.4329Z" fill="url(#paint68_linear_690_652)"/>
<path d="M92.4877 24.7025C92.2624 24.7025 92.078 24.5181 92.078 24.2928C92.078 24.0674 92.2624 23.8831 92.4877 23.8831C92.7131 23.8831 92.8975 24.0674 92.8975 24.2928C92.8975 24.5207 92.7156 24.7025 92.4877 24.7025Z" fill="url(#paint69_linear_690_652)"/>
<path d="M58.3312 11.2147C58.2928 11.2147 58.2621 11.184 58.2621 11.1456C58.2621 11.1071 58.2928 11.0764 58.3312 11.0764C58.3697 11.0764 58.4004 11.1071 58.4004 11.1456C58.4004 11.184 58.3697 11.2147 58.3312 11.2147Z" fill="url(#paint70_linear_690_652)"/>
<path d="M52.6357 13.6475C53.0685 13.6475 53.4219 13.9983 53.4219 14.4336C53.4219 14.8664 53.071 15.2198 52.6357 15.2198C52.2029 15.2198 51.8495 14.869 51.8495 14.4336C51.8521 14.0009 52.2029 13.6475 52.6357 13.6475Z" fill="url(#paint71_linear_690_652)"/>
<path d="M52.6358 21.499C52.3643 21.499 52.1441 21.2788 52.1441 21.0073C52.1441 20.7359 52.3643 20.5156 52.6358 20.5156C52.9072 20.5156 53.1274 20.7359 53.1274 21.0073C53.1274 21.2788 52.9072 21.499 52.6358 21.499Z" fill="url(#paint72_linear_690_652)"/>
<path d="M46.9432 24.7359C46.6999 24.7359 46.5002 24.5387 46.5002 24.2929C46.5002 24.0496 46.6974 23.8499 46.9432 23.8499C47.1865 23.8499 47.3862 24.047 47.3862 24.2929C47.3862 24.5387 47.189 24.7359 46.9432 24.7359Z" fill="url(#paint73_linear_690_652)"/>
<path d="M46.943 11.3733C46.8171 11.3733 46.7151 11.2713 46.7151 11.1454C46.7151 11.0195 46.8171 10.9175 46.943 10.9175C47.0689 10.9175 47.1709 11.0195 47.1709 11.1454C47.1709 11.2713 47.0689 11.3733 46.943 11.3733Z" fill="url(#paint74_linear_690_652)"/>
<path d="M41.2505 14.8843C41.0021 14.8843 40.7998 14.682 40.7998 14.4336C40.7998 14.1852 41.0021 13.9829 41.2505 13.9829C41.4989 13.9829 41.7012 14.1852 41.7012 14.4336C41.7012 14.682 41.4989 14.8843 41.2505 14.8843Z" fill="url(#paint75_linear_690_652)"/>
<path d="M41.2502 20.2161C41.6881 20.2161 42.0415 20.5695 42.0415 21.0074C42.0415 21.4453 41.6881 21.7987 41.2502 21.7987C40.8123 21.7987 40.4589 21.4453 40.4589 21.0074C40.4589 20.5695 40.8149 20.2161 41.2502 20.2161Z" fill="url(#paint76_linear_690_652)"/>
<path d="M35.5577 11.4808C35.3733 11.4808 35.2248 11.3322 35.2248 11.1479C35.2248 10.9635 35.3733 10.8149 35.5577 10.8149C35.7421 10.8149 35.8906 10.9635 35.8906 11.1479C35.8906 11.3297 35.7421 11.4808 35.5577 11.4808Z" fill="url(#paint77_linear_690_652)"/>
<path d="M29.8649 15.048C29.5269 15.048 29.2503 14.774 29.2503 14.4334C29.2503 14.0954 29.5243 13.8188 29.8649 13.8188C30.2029 13.8188 30.4795 14.0929 30.4795 14.4334C30.4795 14.7715 30.2029 15.048 29.8649 15.048Z" fill="url(#paint78_linear_690_652)"/>
<path d="M29.8648 21.7397C29.4603 21.7397 29.1324 21.4118 29.1324 21.0073C29.1324 20.6028 29.4603 20.2749 29.8648 20.2749C30.2693 20.2749 30.5972 20.6028 30.5972 21.0073C30.5972 21.4118 30.2693 21.7397 29.8648 21.7397Z" fill="url(#paint79_linear_690_652)"/>
<path d="M24.1725 11.5297C23.96 11.5297 23.7884 11.3581 23.7884 11.1456C23.7884 10.9331 23.96 10.7615 24.1725 10.7615C24.3851 10.7615 24.5566 10.9331 24.5566 11.1456C24.5541 11.3581 24.3825 11.5297 24.1725 11.5297Z" fill="url(#paint80_linear_690_652)"/>
<path d="M18.4795 14.8741C18.2362 14.8741 18.039 14.6769 18.039 14.4336C18.039 14.1903 18.2362 13.9932 18.4795 13.9932C18.7227 13.9932 18.9199 14.1903 18.9199 14.4336C18.9199 14.6769 18.7227 14.8741 18.4795 14.8741Z" fill="url(#paint81_linear_690_652)"/>
<path d="M18.4794 21.3223C18.3055 21.3223 18.1645 21.1813 18.1645 21.0074C18.1645 20.8334 18.3055 20.6924 18.4794 20.6924C18.6534 20.6924 18.7944 20.8334 18.7944 21.0074C18.7944 21.1813 18.6534 21.3223 18.4794 21.3223Z" fill="url(#paint82_linear_690_652)"/>
<path d="M12.784 11.4425C12.6201 11.4425 12.4869 11.3093 12.4869 11.1454C12.4869 10.9816 12.6201 10.8484 12.784 10.8484C12.9479 10.8484 13.0811 10.9816 13.0811 11.1454C13.0811 11.3093 12.9479 11.4425 12.784 11.4425Z" fill="url(#paint83_linear_690_652)"/>
<path d="M7.09152 14.8997C6.83288 14.8997 6.62545 14.6897 6.62545 14.4336C6.62545 14.175 6.83544 13.9675 7.09152 13.9675C7.35016 13.9675 7.55759 14.1775 7.55759 14.4336C7.56015 14.6922 7.35016 14.8997 7.09152 14.8997Z" fill="url(#paint84_linear_690_652)"/>
<path d="M7.091 21.5375C6.79824 21.5375 6.56091 21.3002 6.56091 21.0074C6.56091 20.7146 6.79824 20.4773 7.091 20.4773C7.38376 20.4773 7.62109 20.7146 7.62109 21.0074C7.62109 21.3002 7.38376 21.5375 7.091 21.5375Z" fill="url(#paint85_linear_690_652)"/>
<path d="M1.39865 11.5911C1.15281 11.5911 0.953064 11.3914 0.953064 11.1455C0.953064 10.8997 1.15281 10.7 1.39865 10.7C1.6445 10.7 1.84424 10.8997 1.84424 11.1455C1.84424 11.3914 1.6445 11.5911 1.39865 11.5911Z" fill="url(#paint86_linear_690_652)"/>
<path d="M98.1832 33.6321C98.4725 33.6321 98.7056 33.8677 98.7056 34.1545C98.7056 34.4439 98.47 34.6769 98.1832 34.6769C97.8938 34.6769 97.6582 34.4413 97.6582 34.1545C97.6582 33.8651 97.8938 33.6321 98.1832 33.6321Z" fill="url(#paint87_linear_690_652)"/>
<path d="M103.876 31.1993C103.693 31.1993 103.545 31.0514 103.545 30.8689C103.545 30.6865 103.693 30.5386 103.876 30.5386C104.058 30.5386 104.206 30.6865 104.206 30.8689C104.206 31.0514 104.058 31.1993 103.876 31.1993Z" fill="url(#paint88_linear_690_652)"/>
<path d="M103.876 24.5437C103.738 24.5437 103.625 24.431 103.625 24.2927C103.625 24.1544 103.738 24.0417 103.876 24.0417C104.014 24.0417 104.127 24.1544 104.127 24.2927C104.124 24.431 104.014 24.5437 103.876 24.5437Z" fill="url(#paint89_linear_690_652)"/>
<path d="M98.183 21.7728C97.7602 21.7728 97.4173 21.43 97.4173 21.0071C97.4173 20.5843 97.7602 20.2415 98.183 20.2415C98.6059 20.2415 98.9487 20.5843 98.9487 21.0071C98.9487 21.43 98.6059 21.7728 98.183 21.7728Z" fill="url(#paint90_linear_690_652)"/>
<path d="M92.4876 31.5119C92.1316 31.5119 91.8448 31.2225 91.8448 30.8691C91.8448 30.5157 92.1342 30.2263 92.4876 30.2263C92.841 30.2263 93.1304 30.5157 93.1304 30.8691C93.1304 31.2225 92.8436 31.5119 92.4876 31.5119Z" fill="url(#paint91_linear_690_652)"/>
<path d="M46.943 31.4607C46.6152 31.4607 46.3489 31.1944 46.3489 30.8666C46.3489 30.5388 46.6152 30.2725 46.943 30.2725C47.2708 30.2725 47.5371 30.5388 47.5371 30.8666C47.5371 31.1969 47.2708 31.4607 46.943 31.4607Z" fill="url(#paint92_linear_690_652)"/>
<path d="M35.5576 23.9905C35.724 23.9905 35.8623 24.1262 35.8623 24.2952C35.8623 24.4617 35.7266 24.6 35.5576 24.6C35.3885 24.6 35.2528 24.4642 35.2528 24.2952C35.2528 24.1262 35.3911 23.9905 35.5576 23.9905Z" fill="url(#paint93_linear_690_652)"/>
<path d="M35.5577 31.4324C35.2478 31.4324 34.9943 31.1815 34.9943 30.869C34.9943 30.5592 35.2453 30.3057 35.5577 30.3057C35.8676 30.3057 36.1211 30.5566 36.1211 30.869C36.1211 31.1789 35.8676 31.4324 35.5577 31.4324Z" fill="url(#paint94_linear_690_652)"/>
<path d="M29.8648 34.5105C29.6682 34.5105 29.5088 34.3511 29.5088 34.1545C29.5088 33.958 29.6682 33.7986 29.8648 33.7986C30.0613 33.7986 30.2207 33.958 30.2207 34.1545C30.2207 34.3511 30.0613 34.5105 29.8648 34.5105Z" fill="url(#paint95_linear_690_652)"/>
<path d="M24.1721 23.4631C24.6305 23.4631 25.0044 23.8345 25.0044 24.2954C25.0044 24.7538 24.6331 25.1277 24.1721 25.1277C23.7137 25.1277 23.3398 24.7564 23.3398 24.2954C23.3398 23.8345 23.7112 23.4631 24.1721 23.4631Z" fill="url(#paint96_linear_690_652)"/>
<path d="M12.7842 24.9125C12.4436 24.9125 12.167 24.636 12.167 24.2954C12.167 23.9548 12.4436 23.6782 12.7842 23.6782C13.1248 23.6782 13.4014 23.9548 13.4014 24.2954C13.4014 24.636 13.1274 24.9125 12.7842 24.9125Z" fill="url(#paint97_linear_690_652)"/>
<path d="M7.09096 34.7692C6.75037 34.7692 6.47636 34.4927 6.47636 34.1546C6.47636 33.814 6.75293 33.54 7.09096 33.54C7.43155 33.54 7.70557 33.8166 7.70557 34.1546C7.70557 34.4952 7.43155 34.7692 7.09096 34.7692Z" fill="url(#paint98_linear_690_652)"/>
<path d="M12.7841 31.5937C12.3846 31.5937 12.0593 31.2685 12.0593 30.869C12.0593 30.4695 12.3846 30.1443 12.7841 30.1443C13.1836 30.1443 13.5088 30.4695 13.5088 30.869C13.5113 31.2685 13.1861 31.5937 12.7841 31.5937Z" fill="url(#paint99_linear_690_652)"/>
<path d="M1.39888 24.9535C1.03524 24.9535 0.74074 24.659 0.74074 24.2928C0.74074 23.9291 1.03524 23.6321 1.39888 23.6321C1.76252 23.6321 2.05957 23.9266 2.05957 24.2928C2.05957 24.659 1.76252 24.9535 1.39888 24.9535Z" fill="url(#paint100_linear_690_652)"/>
<path d="M40.7766 34.1547C40.7766 33.8935 40.9892 33.6809 41.2504 33.6809C41.5116 33.6809 41.7241 33.8935 41.7241 34.1547C41.7241 34.4159 41.5116 34.6284 41.2504 34.6284C40.9892 34.6284 40.7766 34.4159 40.7766 34.1547Z" fill="url(#paint101_linear_690_652)"/>
<path d="M24.1721 31.2507C23.9614 31.2507 23.7906 31.0798 23.7906 30.8691C23.7906 30.6584 23.9614 30.4875 24.1721 30.4875C24.3829 30.4875 24.5537 30.6584 24.5537 30.8691C24.5537 31.0798 24.3829 31.2507 24.1721 31.2507Z" fill="url(#paint102_linear_690_652)"/>
<path d="M18.4794 34.5643C18.2541 34.5643 18.0697 34.3825 18.0697 34.1546C18.0697 33.9293 18.2515 33.7449 18.4794 33.7449C18.7048 33.7449 18.8892 33.9267 18.8892 34.1546C18.8866 34.38 18.7048 34.5643 18.4794 34.5643Z" fill="url(#paint103_linear_690_652)"/>
<path d="M1.39861 44.421C1.17515 44.421 0.993997 44.2399 0.993997 44.0164C0.993997 43.793 1.17515 43.6118 1.39861 43.6118C1.62207 43.6118 1.80322 43.793 1.80322 44.0164C1.80322 44.2399 1.62207 44.421 1.39861 44.421Z" fill="url(#paint104_linear_690_652)"/>
<path d="M7.09112 40.2007C7.38306 40.2007 7.61865 40.4363 7.61865 40.7282C7.61865 41.0202 7.38306 41.2557 7.09112 41.2557C6.79918 41.2557 6.56359 41.0202 6.56359 40.7282C6.56615 40.4388 6.80175 40.2007 7.09112 40.2007Z" fill="url(#paint105_linear_690_652)"/>
<path d="M1.39883 31.3735C1.12022 31.3735 0.89435 31.1476 0.89435 30.869C0.89435 30.5904 1.12022 30.3645 1.39883 30.3645C1.67745 30.3645 1.90332 30.5904 1.90332 30.869C1.90332 31.1476 1.67745 31.3735 1.39883 31.3735Z" fill="url(#paint106_linear_690_652)"/>
<path d="M98.183 53.2764C98.5133 53.2764 98.7822 53.5453 98.7822 53.8756C98.7822 54.206 98.5133 54.4748 98.183 54.4748C97.8526 54.4748 97.5838 54.206 97.5838 53.8756C97.5812 53.5453 97.8501 53.2764 98.183 53.2764Z" fill="url(#paint107_linear_690_652)"/>
<path d="M103.875 50.6449C103.845 50.6449 103.821 50.6206 103.821 50.5906C103.821 50.5607 103.845 50.5364 103.875 50.5364C103.905 50.5364 103.929 50.5607 103.929 50.5906C103.929 50.6206 103.905 50.6449 103.875 50.6449Z" fill="url(#paint108_linear_690_652)"/>
<path d="M103.876 44.4954C103.611 44.4954 103.397 44.2809 103.397 44.0165C103.397 43.752 103.611 43.5376 103.876 43.5376C104.14 43.5376 104.354 43.752 104.354 44.0165C104.354 44.2809 104.14 44.4954 103.876 44.4954Z" fill="url(#paint109_linear_690_652)"/>
<path d="M98.1829 40.3159C98.4108 40.3159 98.5952 40.5003 98.5952 40.7282C98.5952 40.9561 98.4108 41.1405 98.1829 41.1405C97.955 41.1405 97.7706 40.9561 97.7706 40.7282C97.7706 40.5003 97.955 40.3159 98.1829 40.3159Z" fill="url(#paint110_linear_690_652)"/>
<path d="M87.1689 53.8756C87.1689 54.0805 87.0025 54.2495 86.7951 54.2495C86.5902 54.2495 86.4212 54.083 86.4212 53.8756C86.4212 53.6707 86.5876 53.5017 86.7951 53.5017C87.0025 53.5043 87.1689 53.6707 87.1689 53.8756Z" fill="url(#paint111_linear_690_652)"/>
<path d="M29.8651 40.1213C30.2006 40.1213 30.4746 40.3928 30.4746 40.7308C30.4746 41.0663 30.2032 41.3403 29.8651 41.3403C29.5297 41.3403 29.2557 41.0688 29.2557 40.7308C29.2557 40.3928 29.5297 40.1213 29.8651 40.1213Z" fill="url(#paint112_linear_690_652)"/>
<path d="M24.8022 44.0163C24.8022 44.3646 24.5206 44.6488 24.1697 44.6488C23.8214 44.6488 23.5372 44.3672 23.5372 44.0163C23.5372 43.668 23.8189 43.3838 24.1697 43.3838C24.5206 43.3838 24.8022 43.6655 24.8022 44.0163Z" fill="url(#paint113_linear_690_652)"/>
<path d="M18.4793 54.257C18.2685 54.257 18.0977 54.0862 18.0977 53.8755C18.0977 53.6647 18.2685 53.4939 18.4793 53.4939C18.69 53.4939 18.8608 53.6647 18.8608 53.8755C18.8608 54.0862 18.69 54.257 18.4793 54.257Z" fill="url(#paint114_linear_690_652)"/>
<path d="M24.1721 51.0869C23.8978 51.0869 23.6753 50.8644 23.6753 50.5901C23.6753 50.3157 23.8978 50.0933 24.1721 50.0933C24.4465 50.0933 24.6689 50.3157 24.6689 50.5901C24.6689 50.8644 24.4465 51.0869 24.1721 51.0869Z" fill="url(#paint115_linear_690_652)"/>
<path d="M18.4792 41.2584C18.1864 41.2584 17.9491 41.0211 17.9491 40.7283C17.9491 40.4356 18.1864 40.1982 18.4792 40.1982C18.7719 40.1982 19.0093 40.4356 19.0093 40.7283C19.0093 41.0211 18.7719 41.2584 18.4792 41.2584Z" fill="url(#paint116_linear_690_652)"/>
<path d="M12.7837 51.3429C12.3679 51.3429 12.0308 51.0058 12.0308 50.59C12.0308 50.1742 12.3679 49.8372 12.7837 49.8372C13.1995 49.8372 13.5366 50.1742 13.5366 50.59C13.5366 51.0058 13.1995 51.3429 12.7837 51.3429Z" fill="url(#paint117_linear_690_652)"/>
<path d="M7.09148 54.3033C6.85588 54.3033 6.66638 54.1138 6.66638 53.8782C6.66638 53.6426 6.85588 53.4531 7.09148 53.4531C7.32707 53.4531 7.51658 53.6426 7.51658 53.8782C7.51914 54.1113 7.32707 54.3033 7.09148 54.3033Z" fill="url(#paint118_linear_690_652)"/>
<path d="M12.7846 44.7616C12.3723 44.7616 12.0394 44.4287 12.0394 44.0164C12.0394 43.6041 12.3723 43.2712 12.7846 43.2712C13.1969 43.2712 13.5298 43.6041 13.5298 44.0164C13.5323 44.4287 13.1969 44.7616 12.7846 44.7616Z" fill="url(#paint119_linear_690_652)"/>
<path d="M1.39879 50.928C1.2121 50.928 1.06076 50.7767 1.06076 50.59C1.06076 50.4033 1.2121 50.252 1.39879 50.252C1.58548 50.252 1.73682 50.4033 1.73682 50.59C1.73682 50.7767 1.58548 50.928 1.39879 50.928Z" fill="url(#paint120_linear_690_652)"/>
<path d="M92.4877 51.3147C92.0856 51.3147 91.763 50.9894 91.763 50.5899C91.763 50.1905 92.0882 49.8652 92.4877 49.8652C92.8897 49.8652 93.2124 50.1905 93.2124 50.5899C93.2124 50.9894 92.8897 51.3147 92.4877 51.3147Z" fill="url(#paint121_linear_690_652)"/>
<path d="M86.7949 61.0664C86.4544 61.0664 86.1778 60.7898 86.1778 60.4492C86.1778 60.1086 86.4544 59.832 86.7949 59.832C87.1355 59.832 87.4121 60.1086 87.4121 60.4492C87.4121 60.7898 87.1355 61.0664 86.7949 61.0664Z" fill="url(#paint122_linear_690_652)"/>
<path d="M75.1178 60.4492C75.1178 60.2878 75.2484 60.1572 75.4097 60.1572C75.5711 60.1572 75.7017 60.2878 75.7017 60.4492C75.7017 60.6105 75.5711 60.7411 75.4097 60.7411C75.2484 60.7411 75.1178 60.6131 75.1178 60.4492Z" fill="url(#paint123_linear_690_652)"/>
<path d="M69.7168 64.3033C69.4043 64.3033 69.1508 64.0498 69.1508 63.7373C69.1508 63.4249 69.4043 63.1714 69.7168 63.1714C70.0292 63.1714 70.2827 63.4249 70.2827 63.7373C70.2827 64.0498 70.0292 64.3033 69.7168 64.3033Z" fill="url(#paint124_linear_690_652)"/>
<path d="M63.4757 60.4494C63.4757 60.1472 63.7216 59.9014 64.0238 59.9014C64.3259 59.9014 64.5718 60.1472 64.5718 60.4494C64.5718 60.7516 64.3259 60.9974 64.0238 60.9974C63.7216 60.9974 63.4757 60.7516 63.4757 60.4494Z" fill="url(#paint125_linear_690_652)"/>
<path d="M58.331 64.3776C57.9776 64.3776 57.6908 64.0908 57.6908 63.7374C57.6908 63.384 57.9776 63.0972 58.331 63.0972C58.6844 63.0972 58.9712 63.384 58.9712 63.7374C58.9712 64.0908 58.6844 64.3776 58.331 64.3776Z" fill="url(#paint126_linear_690_652)"/>
<path d="M98.183 73.968C97.9793 73.968 97.8142 73.8029 97.8142 73.5992C97.8142 73.3956 97.9793 73.2305 98.183 73.2305C98.3867 73.2305 98.5518 73.3956 98.5518 73.5992C98.5518 73.8029 98.3867 73.968 98.183 73.968Z" fill="url(#paint127_linear_690_652)"/>
<path d="M103.875 70.6056C103.713 70.6056 103.581 70.4737 103.581 70.3111C103.581 70.1485 103.713 70.0166 103.875 70.0166C104.038 70.0166 104.17 70.1485 104.17 70.3111C104.17 70.4737 104.038 70.6056 103.875 70.6056Z" fill="url(#paint128_linear_690_652)"/>
<path d="M104.014 63.7375C104.014 63.8144 103.953 63.8784 103.873 63.8784C103.796 63.8784 103.732 63.8169 103.732 63.7375C103.732 63.6607 103.794 63.5967 103.873 63.5967C103.953 63.5967 104.014 63.6607 104.014 63.7375Z" fill="url(#paint129_linear_690_652)"/>
<path d="M98.183 61.0281C97.8633 61.0281 97.6042 60.769 97.6042 60.4494C97.6042 60.1297 97.8633 59.8706 98.183 59.8706C98.5026 59.8706 98.7617 60.1297 98.7617 60.4494C98.7617 60.769 98.5026 61.0281 98.183 61.0281Z" fill="url(#paint130_linear_690_652)"/>
<path d="M92.9663 70.311C92.9663 70.5748 92.7538 70.7873 92.49 70.7873C92.2262 70.7873 92.0137 70.5748 92.0137 70.311C92.0137 70.0473 92.2262 69.8347 92.49 69.8347C92.7512 69.8347 92.9663 70.0473 92.9663 70.311Z" fill="url(#paint131_linear_690_652)"/>
<path d="M92.1623 63.7375C92.1623 63.5556 92.3083 63.4097 92.4901 63.4097C92.6719 63.4097 92.8179 63.5556 92.8179 63.7375C92.8179 63.9193 92.6719 64.0652 92.4901 64.0652C92.3083 64.0652 92.1623 63.9193 92.1623 63.7375Z" fill="url(#paint132_linear_690_652)"/>
<path d="M81.1022 63.4685C81.2507 63.4685 81.3711 63.5889 81.3711 63.7374C81.3711 63.8859 81.2507 64.0063 81.1022 64.0063C80.9537 64.0063 80.8333 63.8859 80.8333 63.7374C80.8359 63.5889 80.9537 63.4685 81.1022 63.4685Z" fill="url(#paint133_linear_690_652)"/>
<path d="M75.8604 73.5992C75.8604 73.8476 75.658 74.0499 75.4096 74.0499C75.1612 74.0499 74.9589 73.8476 74.9589 73.5992C74.9589 73.3508 75.1612 73.1485 75.4096 73.1485C75.658 73.1459 75.8604 73.3482 75.8604 73.5992Z" fill="url(#paint134_linear_690_652)"/>
<path d="M81.1025 69.6606C81.461 69.6606 81.7529 69.9526 81.7529 70.3111C81.7529 70.6696 81.461 70.9616 81.1025 70.9616C80.744 70.9616 80.452 70.6696 80.452 70.3111C80.452 69.9526 80.744 69.6606 81.1025 69.6606Z" fill="url(#paint135_linear_690_652)"/>
<path d="M58.331 71.0127C57.9444 71.0127 57.6294 70.6977 57.6294 70.311C57.6294 69.9244 57.9444 69.6094 58.331 69.6094C58.7177 69.6094 59.0327 69.9244 59.0327 70.311C59.0302 70.6977 58.7177 71.0127 58.331 71.0127Z" fill="url(#paint136_linear_690_652)"/>
<path d="M18.4792 73.2458C18.6739 73.2458 18.8301 73.4021 18.8301 73.5967C18.8301 73.7913 18.6739 73.9475 18.4792 73.9475C18.2846 73.9475 18.1284 73.7913 18.1284 73.5967C18.1284 73.4021 18.2846 73.2458 18.4792 73.2458Z" fill="url(#paint137_linear_690_652)"/>
<path d="M18.4794 60.859C18.2541 60.859 18.0697 60.6746 18.0697 60.4493C18.0697 60.2239 18.2541 60.0396 18.4794 60.0396C18.7048 60.0396 18.8892 60.2239 18.8892 60.4493C18.8892 60.6772 18.7048 60.859 18.4794 60.859Z" fill="url(#paint138_linear_690_652)"/>
<path d="M12.7839 62.9358C13.2269 62.9358 13.5854 63.2943 13.5854 63.7373C13.5854 64.1804 13.2269 64.5389 12.7839 64.5389C12.3409 64.5389 11.9824 64.1804 11.9824 63.7373C11.9849 63.2943 12.3434 62.9358 12.7839 62.9358Z" fill="url(#paint139_linear_690_652)"/>
<path d="M7.09151 60.8846C6.85079 60.8846 6.65617 60.69 6.65617 60.4493C6.65617 60.2085 6.85079 60.0139 7.09151 60.0139C7.33223 60.0139 7.52686 60.2085 7.52686 60.4493C7.52686 60.69 7.33223 60.8846 7.09151 60.8846Z" fill="url(#paint140_linear_690_652)"/>
<path d="M1.39875 64.3903C1.03767 64.3903 0.745729 64.0983 0.745729 63.7372C0.745729 63.3762 1.03767 63.0842 1.39875 63.0842C1.75983 63.0842 2.05176 63.3762 2.05176 63.7372C2.05176 64.0983 1.75983 64.3903 1.39875 64.3903Z" fill="url(#paint141_linear_690_652)"/>
<path d="M1.39836 69.4404C1.8798 69.4404 2.26904 69.8297 2.26904 70.3111C2.26904 70.7926 1.8798 71.1818 1.39836 71.1818C0.916922 71.1818 0.527668 70.7926 0.527668 70.3111C0.527668 69.8297 0.919483 69.4404 1.39836 69.4404Z" fill="url(#paint142_linear_690_652)"/>
<path d="M87.2275 73.5993C87.2275 73.8374 87.0355 74.0321 86.7948 74.0321C86.5566 74.0321 86.362 73.84 86.362 73.5993C86.362 73.3611 86.554 73.1665 86.7948 73.1665C87.0329 73.1665 87.2275 73.3586 87.2275 73.5993Z" fill="url(#paint143_linear_690_652)"/>
<path d="M86.7947 80.877C86.4054 80.877 86.0879 80.562 86.0879 80.1702C86.0879 79.7809 86.4029 79.4634 86.7947 79.4634C87.1839 79.4634 87.5015 79.7784 87.5015 80.1702C87.5015 80.562 87.1865 80.877 86.7947 80.877Z" fill="url(#paint144_linear_690_652)"/>
<path d="M69.7166 71.0485C69.3093 71.0485 68.9791 70.7183 68.9791 70.311C68.9791 69.9037 69.3093 69.5735 69.7166 69.5735C70.1239 69.5735 70.4541 69.9037 70.4541 70.311C70.4541 70.7183 70.1239 71.0485 69.7166 71.0485Z" fill="url(#paint145_linear_690_652)"/>
<path d="M64.024 73.8705C63.874 73.8705 63.7525 73.749 63.7525 73.5991C63.7525 73.4492 63.874 73.3276 64.024 73.3276C64.1739 73.3276 64.2954 73.4492 64.2954 73.5991C64.2954 73.749 64.1739 73.8705 64.024 73.8705Z" fill="url(#paint146_linear_690_652)"/>
<path d="M58.3311 84.004C58.0315 84.004 57.7882 83.7607 57.7882 83.4611C57.7882 83.1615 58.0315 82.9182 58.3311 82.9182C58.6307 82.9182 58.874 83.1615 58.874 83.4611C58.874 83.7582 58.6307 84.004 58.3311 84.004Z" fill="url(#paint147_linear_690_652)"/>
<path d="M64.0237 81.0051C63.564 81.0051 63.1914 80.6325 63.1914 80.1728C63.1914 79.7132 63.564 79.3406 64.0237 79.3406C64.4833 79.3406 64.856 79.7132 64.856 80.1728C64.856 80.6325 64.4833 81.0051 64.0237 81.0051Z" fill="url(#paint148_linear_690_652)"/>
<path d="M18.0056 80.173C18.0056 79.9118 18.2182 79.6992 18.4794 79.6992C18.7406 79.6992 18.9531 79.9118 18.9531 80.173C18.9531 80.4342 18.7406 80.6467 18.4794 80.6467C18.2182 80.6442 18.0056 80.4316 18.0056 80.173Z" fill="url(#paint149_linear_690_652)"/>
<path d="M7.09094 74.2138C6.75035 74.2138 6.47634 73.9372 6.47634 73.5992C6.47634 73.2586 6.75291 72.9846 7.09094 72.9846C7.43153 72.9846 7.70555 73.2612 7.70555 73.5992C7.70811 73.9372 7.43153 74.2138 7.09094 74.2138Z" fill="url(#paint150_linear_690_652)"/>
<path d="M7.09096 79.5583C7.43155 79.5583 7.70557 79.8324 7.70557 80.173C7.70557 80.5135 7.43155 80.7876 7.09096 80.7876C6.75037 80.7876 6.47636 80.5135 6.47636 80.173C6.47636 79.8324 6.75293 79.5583 7.09096 79.5583Z" fill="url(#paint151_linear_690_652)"/>
<path d="M103.766 83.4585C103.766 83.3996 103.814 83.3484 103.876 83.3484C103.937 83.3484 103.986 83.397 103.986 83.4585C103.986 83.52 103.937 83.5686 103.876 83.5686C103.814 83.5686 103.766 83.52 103.766 83.4585Z" fill="url(#paint152_linear_690_652)"/>
<path d="M98.1831 79.8169C98.3803 79.8169 98.5391 79.9757 98.5391 80.1729C98.5391 80.37 98.3803 80.5288 98.1831 80.5288C97.9859 80.5288 97.8271 80.37 97.8271 80.1729C97.8271 79.9757 97.9859 79.8169 98.1831 79.8169Z" fill="url(#paint153_linear_690_652)"/>
<path d="M92.4875 82.552C92.9869 82.552 93.394 82.9566 93.394 83.4585C93.394 83.9579 92.9894 84.3651 92.4875 84.3651C91.9881 84.3651 91.581 83.9605 91.581 83.4585C91.5835 82.9592 91.9881 82.552 92.4875 82.552Z" fill="url(#paint154_linear_690_652)"/>
<path d="M81.1024 82.9104C81.4046 82.9104 81.6504 83.1562 81.6504 83.4584C81.6504 83.7606 81.4046 84.0064 81.1024 84.0064C80.8002 84.0064 80.5544 83.7606 80.5544 83.4584C80.5569 83.1562 80.8002 82.9104 81.1024 82.9104Z" fill="url(#paint155_linear_690_652)"/>
<path d="M75.4095 80.7951C75.0663 80.7951 74.7872 80.516 74.7872 80.1728C74.7872 79.8297 75.0663 79.5505 75.4095 79.5505C75.7526 79.5505 76.0317 79.8297 76.0317 80.1728C76.0317 80.516 75.7526 80.7951 75.4095 80.7951Z" fill="url(#paint156_linear_690_652)"/>
<path d="M69.0049 83.4585C69.0049 83.0641 69.325 82.7466 69.7168 82.7466C70.1086 82.7466 70.4287 83.0667 70.4287 83.4585C70.4287 83.8529 70.1086 84.1704 69.7168 84.1704C69.325 84.1704 69.0049 83.8529 69.0049 83.4585Z" fill="url(#paint157_linear_690_652)"/>
<path d="M24.172 83.9475C23.9031 83.9475 23.6829 83.7272 23.6829 83.4584C23.6829 83.1895 23.9031 82.9692 24.172 82.9692C24.4409 82.9692 24.6611 83.1895 24.6611 83.4584C24.6611 83.7298 24.4409 83.9475 24.172 83.9475Z" fill="url(#paint158_linear_690_652)"/>
<path d="M12.7839 83.9989C12.4842 83.9989 12.2435 83.7556 12.2435 83.4585C12.2435 83.1589 12.4868 82.9182 12.7839 82.9182C13.0835 82.9182 13.3242 83.1615 13.3242 83.4585C13.3268 83.7582 13.0835 83.9989 12.7839 83.9989Z" fill="url(#paint159_linear_690_652)"/>
<defs>
<linearGradient id="paint0_linear_690_652" x1="-6.59157" y1="100.379" x2="51.551" y2="10.6074" gradientUnits="userSpaceOnUse">
<stop stop-color="#52BBE8"/>
<stop offset="0.196" stop-color="#69C3EB"/>
<stop offset="0.6037" stop-color="#A3D8F1"/>
<stop offset="1" stop-color="#E1EFF8"/>
</linearGradient>
<linearGradient id="paint1_linear_690_652" x1="-14.6128" y1="95.1842" x2="43.5298" y2="5.41216" gradientUnits="userSpaceOnUse">
<stop stop-color="#52BBE8"/>
<stop offset="0.196" stop-color="#69C3EB"/>
<stop offset="0.6037" stop-color="#A3D8F1"/>
<stop offset="1" stop-color="#E1EFF8"/>
</linearGradient>
<linearGradient id="paint2_linear_690_652" x1="-22.6344" y1="89.9888" x2="35.5081" y2="0.216862" gradientUnits="userSpaceOnUse">
<stop stop-color="#52BBE8"/>
<stop offset="0.196" stop-color="#69C3EB"/>
<stop offset="0.6037" stop-color="#A3D8F1"/>
<stop offset="1" stop-color="#E1EFF8"/>
</linearGradient>
<linearGradient id="paint3_linear_690_652" x1="-30.6559" y1="84.7937" x2="27.4866" y2="-4.9782" gradientUnits="userSpaceOnUse">
<stop stop-color="#52BBE8"/>
<stop offset="0.196" stop-color="#69C3EB"/>
<stop offset="0.6037" stop-color="#A3D8F1"/>
<stop offset="1" stop-color="#E1EFF8"/>
</linearGradient>
<linearGradient id="paint4_linear_690_652" x1="-37.7249" y1="80.2156" x2="20.4177" y2="-9.55649" gradientUnits="userSpaceOnUse">
<stop stop-color="#52BBE8"/>
<stop offset="0.196" stop-color="#69C3EB"/>
<stop offset="0.6037" stop-color="#A3D8F1"/>
<stop offset="1" stop-color="#E1EFF8"/>
</linearGradient>
<linearGradient id="paint5_linear_690_652" x1="34.0041" y1="126.672" x2="92.1466" y2="36.8999" gradientUnits="userSpaceOnUse">
<stop stop-color="#52BBE8"/>
<stop offset="0.196" stop-color="#69C3EB"/>
<stop offset="0.6037" stop-color="#A3D8F1"/>
<stop offset="1" stop-color="#E1EFF8"/>
</linearGradient>
<linearGradient id="paint6_linear_690_652" x1="-6.10314" y1="100.696" x2="52.0393" y2="10.9238" gradientUnits="userSpaceOnUse">
<stop stop-color="#52BBE8"/>
<stop offset="0.196" stop-color="#69C3EB"/>
<stop offset="0.6037" stop-color="#A3D8F1"/>
<stop offset="1" stop-color="#E1EFF8"/>
</linearGradient>
<linearGradient id="paint7_linear_690_652" x1="-14.1243" y1="95.5004" x2="44.0182" y2="5.72854" gradientUnits="userSpaceOnUse">
<stop stop-color="#52BBE8"/>
<stop offset="0.196" stop-color="#69C3EB"/>
<stop offset="0.6037" stop-color="#A3D8F1"/>
<stop offset="1" stop-color="#E1EFF8"/>
</linearGradient>
<linearGradient id="paint8_linear_690_652" x1="-22.146" y1="90.3049" x2="35.9965" y2="0.533091" gradientUnits="userSpaceOnUse">
<stop stop-color="#52BBE8"/>
<stop offset="0.196" stop-color="#69C3EB"/>
<stop offset="0.6037" stop-color="#A3D8F1"/>
<stop offset="1" stop-color="#E1EFF8"/>
</linearGradient>
<linearGradient id="paint9_linear_690_652" x1="-30.1675" y1="85.1099" x2="27.9749" y2="-4.66183" gradientUnits="userSpaceOnUse">
<stop stop-color="#52BBE8"/>
<stop offset="0.196" stop-color="#69C3EB"/>
<stop offset="0.6037" stop-color="#A3D8F1"/>
<stop offset="1" stop-color="#E1EFF8"/>
</linearGradient>
<linearGradient id="paint10_linear_690_652" x1="-34.8489" y1="82.0777" x2="23.2934" y2="-7.69395" gradientUnits="userSpaceOnUse">
<stop stop-color="#52BBE8"/>
<stop offset="0.196" stop-color="#69C3EB"/>
<stop offset="0.6037" stop-color="#A3D8F1"/>
<stop offset="1" stop-color="#E1EFF8"/>
</linearGradient>
<linearGradient id="paint11_linear_690_652" x1="-13.636" y1="95.8166" x2="44.5065" y2="6.04473" gradientUnits="userSpaceOnUse">
<stop stop-color="#52BBE8"/>
<stop offset="0.196" stop-color="#69C3EB"/>
<stop offset="0.6037" stop-color="#A3D8F1"/>
<stop offset="1" stop-color="#E1EFF8"/>
</linearGradient>
<linearGradient id="paint12_linear_690_652" x1="-21.6575" y1="90.6215" x2="36.485" y2="0.849568" gradientUnits="userSpaceOnUse">
<stop stop-color="#52BBE8"/>
<stop offset="0.196" stop-color="#69C3EB"/>
<stop offset="0.6037" stop-color="#A3D8F1"/>
<stop offset="1" stop-color="#E1EFF8"/>
</linearGradient>
<linearGradient id="paint13_linear_690_652" x1="-28.7265" y1="86.0435" x2="29.4161" y2="-3.7286" gradientUnits="userSpaceOnUse">
<stop stop-color="#52BBE8"/>
<stop offset="0.196" stop-color="#69C3EB"/>
<stop offset="0.6037" stop-color="#A3D8F1"/>
<stop offset="1" stop-color="#E1EFF8"/>
</linearGradient>
<linearGradient id="paint14_linear_690_652" x1="-13.1476" y1="96.1332" x2="44.9949" y2="6.36135" gradientUnits="userSpaceOnUse">
<stop stop-color="#52BBE8"/>
<stop offset="0.196" stop-color="#69C3EB"/>
<stop offset="0.6037" stop-color="#A3D8F1"/>
<stop offset="1" stop-color="#E1EFF8"/>
</linearGradient>
<linearGradient id="paint15_linear_690_652" x1="-21.1691" y1="90.938" x2="36.9733" y2="1.1662" gradientUnits="userSpaceOnUse">
<stop stop-color="#52BBE8"/>
<stop offset="0.196" stop-color="#69C3EB"/>
<stop offset="0.6037" stop-color="#A3D8F1"/>
<stop offset="1" stop-color="#E1EFF8"/>
</linearGradient>
<linearGradient id="paint16_linear_690_652" x1="-25.8506" y1="87.9057" x2="32.292" y2="-1.86622" gradientUnits="userSpaceOnUse">
<stop stop-color="#52BBE8"/>
<stop offset="0.196" stop-color="#69C3EB"/>
<stop offset="0.6037" stop-color="#A3D8F1"/>
<stop offset="1" stop-color="#E1EFF8"/>
</linearGradient>
<linearGradient id="paint17_linear_690_652" x1="43.491" y1="132.816" x2="101.634" y2="43.0442" gradientUnits="userSpaceOnUse">
<stop stop-color="#52BBE8"/>
<stop offset="0.196" stop-color="#69C3EB"/>
<stop offset="0.6037" stop-color="#A3D8F1"/>
<stop offset="1" stop-color="#E1EFF8"/>
</linearGradient>
<linearGradient id="paint18_linear_690_652" x1="-12.6591" y1="96.4496" x2="45.4835" y2="6.6777" gradientUnits="userSpaceOnUse">
<stop stop-color="#52BBE8"/>
<stop offset="0.196" stop-color="#69C3EB"/>
<stop offset="0.6037" stop-color="#A3D8F1"/>
<stop offset="1" stop-color="#E1EFF8"/>
</linearGradient>
<linearGradient id="paint19_linear_690_652" x1="-19.7281" y1="91.8713" x2="38.4146" y2="2.09918" gradientUnits="userSpaceOnUse">
<stop stop-color="#52BBE8"/>
<stop offset="0.196" stop-color="#69C3EB"/>
<stop offset="0.6037" stop-color="#A3D8F1"/>
<stop offset="1" stop-color="#E1EFF8"/>
</linearGradient>
<linearGradient id="paint20_linear_690_652" x1="52.0008" y1="138.328" x2="110.143" y2="48.5558" gradientUnits="userSpaceOnUse">
<stop stop-color="#52BBE8"/>
<stop offset="0.196" stop-color="#69C3EB"/>
<stop offset="0.6037" stop-color="#A3D8F1"/>
<stop offset="1" stop-color="#E1EFF8"/>
</linearGradient>
<linearGradient id="paint21_linear_690_652" x1="43.9793" y1="133.133" x2="102.122" y2="43.3606" gradientUnits="userSpaceOnUse">
<stop stop-color="#52BBE8"/>
<stop offset="0.196" stop-color="#69C3EB"/>
<stop offset="0.6037" stop-color="#A3D8F1"/>
<stop offset="1" stop-color="#E1EFF8"/>
</linearGradient>
<linearGradient id="paint22_linear_690_652" x1="35.9582" y1="127.937" x2="94.1007" y2="38.1654" gradientUnits="userSpaceOnUse">
<stop stop-color="#52BBE8"/>
<stop offset="0.196" stop-color="#69C3EB"/>
<stop offset="0.6037" stop-color="#A3D8F1"/>
<stop offset="1" stop-color="#E1EFF8"/>
</linearGradient>
<linearGradient id="paint23_linear_690_652" x1="27.9364" y1="122.742" x2="86.079" y2="32.9702" gradientUnits="userSpaceOnUse">
<stop stop-color="#52BBE8"/>
<stop offset="0.196" stop-color="#69C3EB"/>
<stop offset="0.6037" stop-color="#A3D8F1"/>
<stop offset="1" stop-color="#E1EFF8"/>
</linearGradient>
<linearGradient id="paint24_linear_690_652" x1="-16.8522" y1="93.7337" x2="41.2903" y2="3.96207" gradientUnits="userSpaceOnUse">
<stop stop-color="#52BBE8"/>
<stop offset="0.196" stop-color="#69C3EB"/>
<stop offset="0.6037" stop-color="#A3D8F1"/>
<stop offset="1" stop-color="#E1EFF8"/>
</linearGradient>
<linearGradient id="paint25_linear_690_652" x1="52.4894" y1="138.644" x2="110.632" y2="48.8722" gradientUnits="userSpaceOnUse">
<stop stop-color="#52BBE8"/>
<stop offset="0.196" stop-color="#69C3EB"/>
<stop offset="0.6037" stop-color="#A3D8F1"/>
<stop offset="1" stop-color="#E1EFF8"/>
</linearGradient>
<linearGradient id="paint26_linear_690_652" x1="44.4677" y1="133.449" x2="102.61" y2="43.677" gradientUnits="userSpaceOnUse">
<stop stop-color="#52BBE8"/>
<stop offset="0.196" stop-color="#69C3EB"/>
<stop offset="0.6037" stop-color="#A3D8F1"/>
<stop offset="1" stop-color="#E1EFF8"/>
</linearGradient>
<linearGradient id="paint27_linear_690_652" x1="36.4465" y1="128.254" x2="94.589" y2="38.4818" gradientUnits="userSpaceOnUse">
<stop stop-color="#52BBE8"/>
<stop offset="0.196" stop-color="#69C3EB"/>
<stop offset="0.6037" stop-color="#A3D8F1"/>
<stop offset="1" stop-color="#E1EFF8"/>
</linearGradient>
<linearGradient id="paint28_linear_690_652" x1="60.3434" y1="143.731" x2="118.486" y2="53.9588" gradientUnits="userSpaceOnUse">
<stop stop-color="#52BBE8"/>
<stop offset="0.196" stop-color="#69C3EB"/>
<stop offset="0.6037" stop-color="#A3D8F1"/>
<stop offset="1" stop-color="#E1EFF8"/>
</linearGradient>
<linearGradient id="paint29_linear_690_652" x1="52.3217" y1="138.536" x2="110.464" y2="48.7633" gradientUnits="userSpaceOnUse">
<stop stop-color="#52BBE8"/>
<stop offset="0.196" stop-color="#69C3EB"/>
<stop offset="0.6037" stop-color="#A3D8F1"/>
<stop offset="1" stop-color="#E1EFF8"/>
</linearGradient>
<linearGradient id="paint30_linear_690_652" x1="44.3006" y1="133.34" x2="102.443" y2="43.5687" gradientUnits="userSpaceOnUse">
<stop stop-color="#52BBE8"/>
<stop offset="0.196" stop-color="#69C3EB"/>
<stop offset="0.6037" stop-color="#A3D8F1"/>
<stop offset="1" stop-color="#E1EFF8"/>
</linearGradient>
<linearGradient id="paint31_linear_690_652" x1="36.2789" y1="128.145" x2="94.4212" y2="38.3735" gradientUnits="userSpaceOnUse">
<stop stop-color="#52BBE8"/>
<stop offset="0.196" stop-color="#69C3EB"/>
<stop offset="0.6037" stop-color="#A3D8F1"/>
<stop offset="1" stop-color="#E1EFF8"/>
</linearGradient>
<linearGradient id="paint32_linear_690_652" x1="4.19338" y1="107.364" x2="62.3359" y2="17.5922" gradientUnits="userSpaceOnUse">
<stop stop-color="#52BBE8"/>
<stop offset="0.196" stop-color="#69C3EB"/>
<stop offset="0.6037" stop-color="#A3D8F1"/>
<stop offset="1" stop-color="#E1EFF8"/>
</linearGradient>
<linearGradient id="paint33_linear_690_652" x1="-3.82829" y1="102.169" x2="54.3141" y2="12.3972" gradientUnits="userSpaceOnUse">
<stop stop-color="#52BBE8"/>
<stop offset="0.196" stop-color="#69C3EB"/>
<stop offset="0.6037" stop-color="#A3D8F1"/>
<stop offset="1" stop-color="#E1EFF8"/>
</linearGradient>
<linearGradient id="paint34_linear_690_652" x1="-22.7927" y1="89.8864" x2="35.3499" y2="0.114461" gradientUnits="userSpaceOnUse">
<stop stop-color="#52BBE8"/>
<stop offset="0.196" stop-color="#69C3EB"/>
<stop offset="0.6037" stop-color="#A3D8F1"/>
<stop offset="1" stop-color="#E1EFF8"/>
</linearGradient>
<linearGradient id="paint35_linear_690_652" x1="-33.2466" y1="83.1157" x2="24.896" y2="-6.65634" gradientUnits="userSpaceOnUse">
<stop stop-color="#52BBE8"/>
<stop offset="0.196" stop-color="#69C3EB"/>
<stop offset="0.6037" stop-color="#A3D8F1"/>
<stop offset="1" stop-color="#E1EFF8"/>
</linearGradient>
<linearGradient id="paint36_linear_690_652" x1="-40.5096" y1="78.4115" x2="17.633" y2="-11.3604" gradientUnits="userSpaceOnUse">
<stop stop-color="#52BBE8"/>
<stop offset="0.196" stop-color="#69C3EB"/>
<stop offset="0.6037" stop-color="#A3D8F1"/>
<stop offset="1" stop-color="#E1EFF8"/>
</linearGradient>
<linearGradient id="paint37_linear_690_652" x1="-22.8324" y1="89.8604" x2="35.3101" y2="0.088515" gradientUnits="userSpaceOnUse">
<stop stop-color="#52BBE8"/>
<stop offset="0.196" stop-color="#69C3EB"/>
<stop offset="0.6037" stop-color="#A3D8F1"/>
<stop offset="1" stop-color="#E1EFF8"/>
</linearGradient>
<linearGradient id="paint38_linear_690_652" x1="-33.2868" y1="83.0896" x2="24.8557" y2="-6.68214" gradientUnits="userSpaceOnUse">
<stop stop-color="#52BBE8"/>
<stop offset="0.196" stop-color="#69C3EB"/>
<stop offset="0.6037" stop-color="#A3D8F1"/>
<stop offset="1" stop-color="#E1EFF8"/>
</linearGradient>
<linearGradient id="paint39_linear_690_652" x1="-40.1913" y1="78.6176" x2="17.9512" y2="-11.1543" gradientUnits="userSpaceOnUse">
<stop stop-color="#52BBE8"/>
<stop offset="0.196" stop-color="#69C3EB"/>
<stop offset="0.6037" stop-color="#A3D8F1"/>
<stop offset="1" stop-color="#E1EFF8"/>
</linearGradient>
<linearGradient id="paint40_linear_690_652" x1="-22.1961" y1="90.2727" x2="35.9464" y2="0.500691" gradientUnits="userSpaceOnUse">
<stop stop-color="#52BBE8"/>
<stop offset="0.196" stop-color="#69C3EB"/>
<stop offset="0.6037" stop-color="#A3D8F1"/>
<stop offset="1" stop-color="#E1EFF8"/>
</linearGradient>
<linearGradient id="paint41_linear_690_652" x1="-31.7626" y1="84.0766" x2="26.3799" y2="-5.69529" gradientUnits="userSpaceOnUse">
<stop stop-color="#52BBE8"/>
<stop offset="0.196" stop-color="#69C3EB"/>
<stop offset="0.6037" stop-color="#A3D8F1"/>
<stop offset="1" stop-color="#E1EFF8"/>
</linearGradient>
<linearGradient id="paint42_linear_690_652" x1="48.1053" y1="135.805" x2="106.248" y2="46.0328" gradientUnits="userSpaceOnUse">
<stop stop-color="#52BBE8"/>
<stop offset="0.196" stop-color="#69C3EB"/>
<stop offset="0.6037" stop-color="#A3D8F1"/>
<stop offset="1" stop-color="#E1EFF8"/>
</linearGradient>
<linearGradient id="paint43_linear_690_652" x1="41.1655" y1="131.31" x2="99.3081" y2="41.538" gradientUnits="userSpaceOnUse">
<stop stop-color="#52BBE8"/>
<stop offset="0.196" stop-color="#69C3EB"/>
<stop offset="0.6037" stop-color="#A3D8F1"/>
<stop offset="1" stop-color="#E1EFF8"/>
</linearGradient>
<linearGradient id="paint44_linear_690_652" x1="30.7116" y1="124.539" x2="88.8541" y2="34.7671" gradientUnits="userSpaceOnUse">
<stop stop-color="#52BBE8"/>
<stop offset="0.196" stop-color="#69C3EB"/>
<stop offset="0.6037" stop-color="#A3D8F1"/>
<stop offset="1" stop-color="#E1EFF8"/>
</linearGradient>
<linearGradient id="paint45_linear_690_652" x1="-28.4639" y1="86.2131" x2="29.6786" y2="-3.55887" gradientUnits="userSpaceOnUse">
<stop stop-color="#52BBE8"/>
<stop offset="0.196" stop-color="#69C3EB"/>
<stop offset="0.6037" stop-color="#A3D8F1"/>
<stop offset="1" stop-color="#E1EFF8"/>
</linearGradient>
<linearGradient id="paint46_linear_690_652" x1="51.385" y1="137.928" x2="109.528" y2="48.1566" gradientUnits="userSpaceOnUse">
<stop stop-color="#52BBE8"/>
<stop offset="0.196" stop-color="#69C3EB"/>
<stop offset="0.6037" stop-color="#A3D8F1"/>
<stop offset="1" stop-color="#E1EFF8"/>
</linearGradient>
<linearGradient id="paint47_linear_690_652" x1="41.8021" y1="131.722" x2="99.9446" y2="41.9502" gradientUnits="userSpaceOnUse">
<stop stop-color="#52BBE8"/>
<stop offset="0.196" stop-color="#69C3EB"/>
<stop offset="0.6037" stop-color="#A3D8F1"/>
<stop offset="1" stop-color="#E1EFF8"/>
</linearGradient>
<linearGradient id="paint48_linear_690_652" x1="31.3481" y1="124.951" x2="89.4906" y2="35.1793" gradientUnits="userSpaceOnUse">
<stop stop-color="#52BBE8"/>
<stop offset="0.196" stop-color="#69C3EB"/>
<stop offset="0.6037" stop-color="#A3D8F1"/>
<stop offset="1" stop-color="#E1EFF8"/>
</linearGradient>
<linearGradient id="paint49_linear_690_652" x1="59.8328" y1="143.4" x2="117.975" y2="53.6282" gradientUnits="userSpaceOnUse">
<stop stop-color="#52BBE8"/>
<stop offset="0.196" stop-color="#69C3EB"/>
<stop offset="0.6037" stop-color="#A3D8F1"/>
<stop offset="1" stop-color="#E1EFF8"/>
</linearGradient>
<linearGradient id="paint50_linear_690_652" x1="52.8928" y1="138.905" x2="111.035" y2="49.1334" gradientUnits="userSpaceOnUse">
<stop stop-color="#52BBE8"/>
<stop offset="0.196" stop-color="#69C3EB"/>
<stop offset="0.6037" stop-color="#A3D8F1"/>
<stop offset="1" stop-color="#E1EFF8"/>
</linearGradient>
<linearGradient id="paint51_linear_690_652" x1="42.439" y1="132.135" x2="100.582" y2="42.3625" gradientUnits="userSpaceOnUse">
<stop stop-color="#52BBE8"/>
<stop offset="0.196" stop-color="#69C3EB"/>
<stop offset="0.6037" stop-color="#A3D8F1"/>
<stop offset="1" stop-color="#E1EFF8"/>
</linearGradient>
<linearGradient id="paint52_linear_690_652" x1="-9.83208" y1="98.2805" x2="48.3105" y2="8.50862" gradientUnits="userSpaceOnUse">
<stop stop-color="#52BBE8"/>
<stop offset="0.196" stop-color="#69C3EB"/>
<stop offset="0.6037" stop-color="#A3D8F1"/>
<stop offset="1" stop-color="#E1EFF8"/>
</linearGradient>
<linearGradient id="paint53_linear_690_652" x1="68.8001" y1="149.207" x2="126.942" y2="59.4361" gradientUnits="userSpaceOnUse">
<stop stop-color="#52BBE8"/>
<stop offset="0.196" stop-color="#69C3EB"/>
<stop offset="0.6037" stop-color="#A3D8F1"/>
<stop offset="1" stop-color="#E1EFF8"/>
</linearGradient>
<linearGradient id="paint54_linear_690_652" x1="62.0017" y1="144.805" x2="120.144" y2="55.0327" gradientUnits="userSpaceOnUse">
<stop stop-color="#52BBE8"/>
<stop offset="0.196" stop-color="#69C3EB"/>
<stop offset="0.6037" stop-color="#A3D8F1"/>
<stop offset="1" stop-color="#E1EFF8"/>
</linearGradient>
<linearGradient id="paint55_linear_690_652" x1="53.5294" y1="139.318" x2="111.672" y2="49.5457" gradientUnits="userSpaceOnUse">
<stop stop-color="#52BBE8"/>
<stop offset="0.196" stop-color="#69C3EB"/>
<stop offset="0.6037" stop-color="#A3D8F1"/>
<stop offset="1" stop-color="#E1EFF8"/>
</linearGradient>
<linearGradient id="paint56_linear_690_652" x1="43.0755" y1="132.547" x2="101.218" y2="42.7748" gradientUnits="userSpaceOnUse">
<stop stop-color="#52BBE8"/>
<stop offset="0.196" stop-color="#69C3EB"/>
<stop offset="0.6037" stop-color="#A3D8F1"/>
<stop offset="1" stop-color="#E1EFF8"/>
</linearGradient>
<linearGradient id="paint57_linear_690_652" x1="1.25878" y1="105.464" x2="59.4013" y2="15.6916" gradientUnits="userSpaceOnUse">
<stop stop-color="#52BBE8"/>
<stop offset="0.196" stop-color="#69C3EB"/>
<stop offset="0.6037" stop-color="#A3D8F1"/>
<stop offset="1" stop-color="#E1EFF8"/>
</linearGradient>
<linearGradient id="paint58_linear_690_652" x1="-8.30789" y1="99.2674" x2="49.8347" y2="9.49541" gradientUnits="userSpaceOnUse">
<stop stop-color="#52BBE8"/>
<stop offset="0.196" stop-color="#69C3EB"/>
<stop offset="0.6037" stop-color="#A3D8F1"/>
<stop offset="1" stop-color="#E1EFF8"/>
</linearGradient>
<linearGradient id="paint59_linear_690_652" x1="-7.30977" y1="99.9143" x2="50.8337" y2="10.1409" gradientUnits="userSpaceOnUse">
<stop stop-color="#52BBE8"/>
<stop offset="0.196" stop-color="#69C3EB"/>
<stop offset="0.6037" stop-color="#A3D8F1"/>
<stop offset="1" stop-color="#E1EFF8"/>
</linearGradient>
<linearGradient id="paint60_linear_690_652" x1="68.7999" y1="149.208" x2="126.942" y2="59.436" gradientUnits="userSpaceOnUse">
<stop stop-color="#52BBE8"/>
<stop offset="0.196" stop-color="#69C3EB"/>
<stop offset="0.6037" stop-color="#A3D8F1"/>
<stop offset="1" stop-color="#E1EFF8"/>
</linearGradient>
<linearGradient id="paint61_linear_690_652" x1="62.462" y1="145.103" x2="120.604" y2="55.3311" gradientUnits="userSpaceOnUse">
<stop stop-color="#52BBE8"/>
<stop offset="0.196" stop-color="#69C3EB"/>
<stop offset="0.6037" stop-color="#A3D8F1"/>
<stop offset="1" stop-color="#E1EFF8"/>
</linearGradient>
<linearGradient id="paint62_linear_690_652" x1="52.008" y1="138.332" x2="110.151" y2="48.5602" gradientUnits="userSpaceOnUse">
<stop stop-color="#52BBE8"/>
<stop offset="0.196" stop-color="#69C3EB"/>
<stop offset="0.6037" stop-color="#A3D8F1"/>
<stop offset="1" stop-color="#E1EFF8"/>
</linearGradient>
<linearGradient id="paint63_linear_690_652" x1="41.5536" y1="131.561" x2="99.6962" y2="41.7894" gradientUnits="userSpaceOnUse">
<stop stop-color="#52BBE8"/>
<stop offset="0.196" stop-color="#69C3EB"/>
<stop offset="0.6037" stop-color="#A3D8F1"/>
<stop offset="1" stop-color="#E1EFF8"/>
</linearGradient>
<linearGradient id="paint64_linear_690_652" x1="31.0996" y1="124.791" x2="89.2422" y2="35.0186" gradientUnits="userSpaceOnUse">
<stop stop-color="#52BBE8"/>
<stop offset="0.196" stop-color="#69C3EB"/>
<stop offset="0.6037" stop-color="#A3D8F1"/>
<stop offset="1" stop-color="#E1EFF8"/>
</linearGradient>
<linearGradient id="paint65_linear_690_652" x1="20.6457" y1="118.02" x2="78.7882" y2="28.2479" gradientUnits="userSpaceOnUse">
<stop stop-color="#52BBE8"/>
<stop offset="0.196" stop-color="#69C3EB"/>
<stop offset="0.6037" stop-color="#A3D8F1"/>
<stop offset="1" stop-color="#E1EFF8"/>
</linearGradient>
<linearGradient id="paint66_linear_690_652" x1="10.1913" y1="111.249" x2="68.3339" y2="21.4769" gradientUnits="userSpaceOnUse">
<stop stop-color="#52BBE8"/>
<stop offset="0.196" stop-color="#69C3EB"/>
<stop offset="0.6037" stop-color="#A3D8F1"/>
<stop offset="1" stop-color="#E1EFF8"/>
</linearGradient>
<linearGradient id="paint67_linear_690_652" x1="-0.262562" y1="104.478" x2="57.8802" y2="14.706" gradientUnits="userSpaceOnUse">
<stop stop-color="#52BBE8"/>
<stop offset="0.196" stop-color="#69C3EB"/>
<stop offset="0.6037" stop-color="#A3D8F1"/>
<stop offset="1" stop-color="#E1EFF8"/>
</linearGradient>
<linearGradient id="paint68_linear_690_652" x1="-7.30923" y1="99.9146" x2="50.8342" y2="10.1413" gradientUnits="userSpaceOnUse">
<stop stop-color="#52BBE8"/>
<stop offset="0.196" stop-color="#69C3EB"/>
<stop offset="0.6037" stop-color="#A3D8F1"/>
<stop offset="1" stop-color="#E1EFF8"/>
</linearGradient>
<linearGradient id="paint69_linear_690_652" x1="28.4945" y1="123.101" x2="86.6362" y2="33.3307" gradientUnits="userSpaceOnUse">
<stop stop-color="#52BBE8"/>
<stop offset="0.196" stop-color="#69C3EB"/>
<stop offset="0.6037" stop-color="#A3D8F1"/>
<stop offset="1" stop-color="#E1EFF8"/>
</linearGradient>
<linearGradient id="paint70_linear_690_652" x1="-1.57064" y1="103.632" x2="56.5717" y2="13.8592" gradientUnits="userSpaceOnUse">
<stop stop-color="#52BBE8"/>
<stop offset="0.196" stop-color="#69C3EB"/>
<stop offset="0.6037" stop-color="#A3D8F1"/>
<stop offset="1" stop-color="#E1EFF8"/>
</linearGradient>
<linearGradient id="paint71_linear_690_652" x1="-4.08061" y1="102.005" x2="54.0616" y2="12.2337" gradientUnits="userSpaceOnUse">
<stop stop-color="#52BBE8"/>
<stop offset="0.196" stop-color="#69C3EB"/>
<stop offset="0.6037" stop-color="#A3D8F1"/>
<stop offset="1" stop-color="#E1EFF8"/>
</linearGradient>
<linearGradient id="paint72_linear_690_652" x1="-1.08073" y1="103.947" x2="57.0614" y2="14.1764" gradientUnits="userSpaceOnUse">
<stop stop-color="#52BBE8"/>
<stop offset="0.196" stop-color="#69C3EB"/>
<stop offset="0.6037" stop-color="#A3D8F1"/>
<stop offset="1" stop-color="#E1EFF8"/>
</linearGradient>
<linearGradient id="paint73_linear_690_652" x1="-3.59204" y1="102.322" x2="54.5506" y2="12.5501" gradientUnits="userSpaceOnUse">
<stop stop-color="#52BBE8"/>
<stop offset="0.196" stop-color="#69C3EB"/>
<stop offset="0.6037" stop-color="#A3D8F1"/>
<stop offset="1" stop-color="#E1EFF8"/>
</linearGradient>
<linearGradient id="paint74_linear_690_652" x1="-9.59129" y1="98.4365" x2="48.5513" y2="8.66453" gradientUnits="userSpaceOnUse">
<stop stop-color="#52BBE8"/>
<stop offset="0.196" stop-color="#69C3EB"/>
<stop offset="0.6037" stop-color="#A3D8F1"/>
<stop offset="1" stop-color="#E1EFF8"/>
</linearGradient>
<linearGradient id="paint75_linear_690_652" x1="-12.103" y1="96.8114" x2="46.0402" y2="7.03794" gradientUnits="userSpaceOnUse">
<stop stop-color="#52BBE8"/>
<stop offset="0.196" stop-color="#69C3EB"/>
<stop offset="0.6037" stop-color="#A3D8F1"/>
<stop offset="1" stop-color="#E1EFF8"/>
</linearGradient>
<linearGradient id="paint76_linear_690_652" x1="-9.10272" y1="98.753" x2="49.0398" y2="8.98117" gradientUnits="userSpaceOnUse">
<stop stop-color="#52BBE8"/>
<stop offset="0.196" stop-color="#69C3EB"/>
<stop offset="0.6037" stop-color="#A3D8F1"/>
<stop offset="1" stop-color="#E1EFF8"/>
</linearGradient>
<linearGradient id="paint77_linear_690_652" x1="-17.6118" y1="93.2398" x2="40.5298" y2="3.46915" gradientUnits="userSpaceOnUse">
<stop stop-color="#52BBE8"/>
<stop offset="0.196" stop-color="#69C3EB"/>
<stop offset="0.6037" stop-color="#A3D8F1"/>
<stop offset="1" stop-color="#E1EFF8"/>
</linearGradient>
<linearGradient id="paint78_linear_690_652" x1="-20.1236" y1="91.6146" x2="38.0187" y2="1.8428" gradientUnits="userSpaceOnUse">
<stop stop-color="#52BBE8"/>
<stop offset="0.196" stop-color="#69C3EB"/>
<stop offset="0.6037" stop-color="#A3D8F1"/>
<stop offset="1" stop-color="#E1EFF8"/>
</linearGradient>
<linearGradient id="paint79_linear_690_652" x1="-17.1241" y1="93.5576" x2="41.0183" y2="3.78584" gradientUnits="userSpaceOnUse">
<stop stop-color="#52BBE8"/>
<stop offset="0.196" stop-color="#69C3EB"/>
<stop offset="0.6037" stop-color="#A3D8F1"/>
<stop offset="1" stop-color="#E1EFF8"/>
</linearGradient>
<linearGradient id="paint80_linear_690_652" x1="-25.634" y1="88.0469" x2="32.509" y2="-1.72579" gradientUnits="userSpaceOnUse">
<stop stop-color="#52BBE8"/>
<stop offset="0.196" stop-color="#69C3EB"/>
<stop offset="0.6037" stop-color="#A3D8F1"/>
<stop offset="1" stop-color="#E1EFF8"/>
</linearGradient>
<linearGradient id="paint81_linear_690_652" x1="-28.1441" y1="86.4186" x2="29.9973" y2="-3.35175" gradientUnits="userSpaceOnUse">
<stop stop-color="#52BBE8"/>
<stop offset="0.196" stop-color="#69C3EB"/>
<stop offset="0.6037" stop-color="#A3D8F1"/>
<stop offset="1" stop-color="#E1EFF8"/>
</linearGradient>
<linearGradient id="paint82_linear_690_652" x1="-25.1451" y1="88.3623" x2="32.9973" y2="-1.40911" gradientUnits="userSpaceOnUse">
<stop stop-color="#52BBE8"/>
<stop offset="0.196" stop-color="#69C3EB"/>
<stop offset="0.6037" stop-color="#A3D8F1"/>
<stop offset="1" stop-color="#E1EFF8"/>
</linearGradient>
<linearGradient id="paint83_linear_690_652" x1="-33.6555" y1="82.8506" x2="24.4868" y2="-6.9212" gradientUnits="userSpaceOnUse">
<stop stop-color="#52BBE8"/>
<stop offset="0.196" stop-color="#69C3EB"/>
<stop offset="0.6037" stop-color="#A3D8F1"/>
<stop offset="1" stop-color="#E1EFF8"/>
</linearGradient>
<linearGradient id="paint84_linear_690_652" x1="-36.1662" y1="81.2249" x2="21.9767" y2="-8.54728" gradientUnits="userSpaceOnUse">
<stop stop-color="#52BBE8"/>
<stop offset="0.196" stop-color="#69C3EB"/>
<stop offset="0.6037" stop-color="#A3D8F1"/>
<stop offset="1" stop-color="#E1EFF8"/>
</linearGradient>
<linearGradient id="paint85_linear_690_652" x1="-33.1674" y1="83.1678" x2="24.9756" y2="-6.60455" gradientUnits="userSpaceOnUse">
<stop stop-color="#52BBE8"/>
<stop offset="0.196" stop-color="#69C3EB"/>
<stop offset="0.6037" stop-color="#A3D8F1"/>
<stop offset="1" stop-color="#E1EFF8"/>
</linearGradient>
<linearGradient id="paint86_linear_690_652" x1="-41.6771" y1="77.656" x2="16.4656" y2="-12.1165" gradientUnits="userSpaceOnUse">
<stop stop-color="#52BBE8"/>
<stop offset="0.196" stop-color="#69C3EB"/>
<stop offset="0.6037" stop-color="#A3D8F1"/>
<stop offset="1" stop-color="#E1EFF8"/>
</linearGradient>
<linearGradient id="paint87_linear_690_652" x1="37.0035" y1="128.615" x2="95.1462" y2="38.8423" gradientUnits="userSpaceOnUse">
<stop stop-color="#52BBE8"/>
<stop offset="0.196" stop-color="#69C3EB"/>
<stop offset="0.6037" stop-color="#A3D8F1"/>
<stop offset="1" stop-color="#E1EFF8"/>
</linearGradient>
<linearGradient id="paint88_linear_690_652" x1="39.515" y1="130.24" x2="97.6571" y2="40.4686" gradientUnits="userSpaceOnUse">
<stop stop-color="#52BBE8"/>
<stop offset="0.196" stop-color="#69C3EB"/>
<stop offset="0.6037" stop-color="#A3D8F1"/>
<stop offset="1" stop-color="#E1EFF8"/>
</linearGradient>
<linearGradient id="paint89_linear_690_652" x1="36.5161" y1="128.297" x2="94.6579" y2="38.5258" gradientUnits="userSpaceOnUse">
<stop stop-color="#52BBE8"/>
<stop offset="0.196" stop-color="#69C3EB"/>
<stop offset="0.6037" stop-color="#A3D8F1"/>
<stop offset="1" stop-color="#E1EFF8"/>
</linearGradient>
<linearGradient id="paint90_linear_690_652" x1="31.0044" y1="124.729" x2="89.1471" y2="34.9571" gradientUnits="userSpaceOnUse">
<stop stop-color="#52BBE8"/>
<stop offset="0.196" stop-color="#69C3EB"/>
<stop offset="0.6037" stop-color="#A3D8F1"/>
<stop offset="1" stop-color="#E1EFF8"/>
</linearGradient>
<linearGradient id="paint91_linear_690_652" x1="31.4924" y1="125.046" x2="89.6354" y2="35.2736" gradientUnits="userSpaceOnUse">
<stop stop-color="#52BBE8"/>
<stop offset="0.196" stop-color="#69C3EB"/>
<stop offset="0.6037" stop-color="#A3D8F1"/>
<stop offset="1" stop-color="#E1EFF8"/>
</linearGradient>
<linearGradient id="paint92_linear_690_652" x1="-0.592885" y1="104.265" x2="57.5497" y2="14.4927" gradientUnits="userSpaceOnUse">
<stop stop-color="#52BBE8"/>
<stop offset="0.196" stop-color="#69C3EB"/>
<stop offset="0.6037" stop-color="#A3D8F1"/>
<stop offset="1" stop-color="#E1EFF8"/>
</linearGradient>
<linearGradient id="paint93_linear_690_652" x1="-11.6137" y1="97.1265" x2="46.5288" y2="7.35458" gradientUnits="userSpaceOnUse">
<stop stop-color="#52BBE8"/>
<stop offset="0.196" stop-color="#69C3EB"/>
<stop offset="0.6037" stop-color="#A3D8F1"/>
<stop offset="1" stop-color="#E1EFF8"/>
</linearGradient>
<linearGradient id="paint94_linear_690_652" x1="-8.61379" y1="99.0689" x2="49.5284" y2="9.29753" gradientUnits="userSpaceOnUse">
<stop stop-color="#52BBE8"/>
<stop offset="0.196" stop-color="#69C3EB"/>
<stop offset="0.6037" stop-color="#A3D8F1"/>
<stop offset="1" stop-color="#E1EFF8"/>
</linearGradient>
<linearGradient id="paint95_linear_690_652" x1="-11.1252" y1="97.4429" x2="47.0173" y2="7.67106" gradientUnits="userSpaceOnUse">
<stop stop-color="#52BBE8"/>
<stop offset="0.196" stop-color="#69C3EB"/>
<stop offset="0.6037" stop-color="#A3D8F1"/>
<stop offset="1" stop-color="#E1EFF8"/>
</linearGradient>
<linearGradient id="paint96_linear_690_652" x1="-19.6354" y1="91.9319" x2="38.5076" y2="2.15937" gradientUnits="userSpaceOnUse">
<stop stop-color="#52BBE8"/>
<stop offset="0.196" stop-color="#69C3EB"/>
<stop offset="0.6037" stop-color="#A3D8F1"/>
<stop offset="1" stop-color="#E1EFF8"/>
</linearGradient>
<linearGradient id="paint97_linear_690_652" x1="-27.6563" y1="86.736" x2="30.486" y2="-3.03565" gradientUnits="userSpaceOnUse">
<stop stop-color="#52BBE8"/>
<stop offset="0.196" stop-color="#69C3EB"/>
<stop offset="0.6037" stop-color="#A3D8F1"/>
<stop offset="1" stop-color="#E1EFF8"/>
</linearGradient>
<linearGradient id="paint98_linear_690_652" x1="-27.1683" y1="87.0522" x2="30.9736" y2="-2.71937" gradientUnits="userSpaceOnUse">
<stop stop-color="#52BBE8"/>
<stop offset="0.196" stop-color="#69C3EB"/>
<stop offset="0.6037" stop-color="#A3D8F1"/>
<stop offset="1" stop-color="#E1EFF8"/>
</linearGradient>
<linearGradient id="paint99_linear_690_652" x1="-24.6568" y1="88.6787" x2="33.4857" y2="-1.09268" gradientUnits="userSpaceOnUse">
<stop stop-color="#52BBE8"/>
<stop offset="0.196" stop-color="#69C3EB"/>
<stop offset="0.6037" stop-color="#A3D8F1"/>
<stop offset="1" stop-color="#E1EFF8"/>
</linearGradient>
<linearGradient id="paint100_linear_690_652" x1="-35.6777" y1="81.5412" x2="22.4652" y2="-8.23107" gradientUnits="userSpaceOnUse">
<stop stop-color="#52BBE8"/>
<stop offset="0.196" stop-color="#69C3EB"/>
<stop offset="0.6037" stop-color="#A3D8F1"/>
<stop offset="1" stop-color="#E1EFF8"/>
</linearGradient>
<linearGradient id="paint101_linear_690_652" x1="-3.10388" y1="102.639" x2="55.0389" y2="12.8663" gradientUnits="userSpaceOnUse">
<stop stop-color="#52BBE8"/>
<stop offset="0.196" stop-color="#69C3EB"/>
<stop offset="0.6037" stop-color="#A3D8F1"/>
<stop offset="1" stop-color="#E1EFF8"/>
</linearGradient>
<linearGradient id="paint102_linear_690_652" x1="-16.6349" y1="93.8734" x2="41.5071" y2="4.10275" gradientUnits="userSpaceOnUse">
<stop stop-color="#52BBE8"/>
<stop offset="0.196" stop-color="#69C3EB"/>
<stop offset="0.6037" stop-color="#A3D8F1"/>
<stop offset="1" stop-color="#E1EFF8"/>
</linearGradient>
<linearGradient id="paint103_linear_690_652" x1="-19.1466" y1="92.2479" x2="38.9961" y2="2.47574" gradientUnits="userSpaceOnUse">
<stop stop-color="#52BBE8"/>
<stop offset="0.196" stop-color="#69C3EB"/>
<stop offset="0.6037" stop-color="#A3D8F1"/>
<stop offset="1" stop-color="#E1EFF8"/>
</linearGradient>
<linearGradient id="paint104_linear_690_652" x1="-26.6794" y1="87.3689" x2="31.463" y2="-2.40293" gradientUnits="userSpaceOnUse">
<stop stop-color="#52BBE8"/>
<stop offset="0.196" stop-color="#69C3EB"/>
<stop offset="0.6037" stop-color="#A3D8F1"/>
<stop offset="1" stop-color="#E1EFF8"/>
</linearGradient>
<linearGradient id="paint105_linear_690_652" x1="-24.1685" y1="88.9948" x2="33.9735" y2="-0.77636" gradientUnits="userSpaceOnUse">
<stop stop-color="#52BBE8"/>
<stop offset="0.196" stop-color="#69C3EB"/>
<stop offset="0.6037" stop-color="#A3D8F1"/>
<stop offset="1" stop-color="#E1EFF8"/>
</linearGradient>
<linearGradient id="paint106_linear_690_652" x1="-32.6784" y1="83.4838" x2="25.4644" y2="-6.28851" gradientUnits="userSpaceOnUse">
<stop stop-color="#52BBE8"/>
<stop offset="0.196" stop-color="#69C3EB"/>
<stop offset="0.6037" stop-color="#A3D8F1"/>
<stop offset="1" stop-color="#E1EFF8"/>
</linearGradient>
<linearGradient id="paint107_linear_690_652" x1="46.0014" y1="134.443" x2="104.145" y2="44.6704" gradientUnits="userSpaceOnUse">
<stop stop-color="#52BBE8"/>
<stop offset="0.196" stop-color="#69C3EB"/>
<stop offset="0.6037" stop-color="#A3D8F1"/>
<stop offset="1" stop-color="#E1EFF8"/>
</linearGradient>
<linearGradient id="paint108_linear_690_652" x1="48.0123" y1="136.84" x2="106.679" y2="46.2583" gradientUnits="userSpaceOnUse">
<stop stop-color="#52BBE8"/>
<stop offset="0.196" stop-color="#69C3EB"/>
<stop offset="0.6037" stop-color="#A3D8F1"/>
<stop offset="1" stop-color="#E1EFF8"/>
</linearGradient>
<linearGradient id="paint109_linear_690_652" x1="45.5132" y1="134.126" x2="103.656" y2="44.3543" gradientUnits="userSpaceOnUse">
<stop stop-color="#52BBE8"/>
<stop offset="0.196" stop-color="#69C3EB"/>
<stop offset="0.6037" stop-color="#A3D8F1"/>
<stop offset="1" stop-color="#E1EFF8"/>
</linearGradient>
<linearGradient id="paint110_linear_690_652" x1="40.003" y1="130.557" x2="98.1454" y2="40.785" gradientUnits="userSpaceOnUse">
<stop stop-color="#52BBE8"/>
<stop offset="0.196" stop-color="#69C3EB"/>
<stop offset="0.6037" stop-color="#A3D8F1"/>
<stop offset="1" stop-color="#E1EFF8"/>
</linearGradient>
<linearGradient id="paint111_linear_690_652" x1="37.9807" y1="129.247" x2="96.1229" y2="39.4751" gradientUnits="userSpaceOnUse">
<stop stop-color="#52BBE8"/>
<stop offset="0.196" stop-color="#69C3EB"/>
<stop offset="0.6037" stop-color="#A3D8F1"/>
<stop offset="1" stop-color="#E1EFF8"/>
</linearGradient>
<linearGradient id="paint112_linear_690_652" x1="-8.12524" y1="99.3856" x2="50.0174" y2="9.61385" gradientUnits="userSpaceOnUse">
<stop stop-color="#52BBE8"/>
<stop offset="0.196" stop-color="#69C3EB"/>
<stop offset="0.6037" stop-color="#A3D8F1"/>
<stop offset="1" stop-color="#E1EFF8"/>
</linearGradient>
<linearGradient id="paint113_linear_690_652" x1="-10.6366" y1="97.7594" x2="47.5062" y2="7.98718" gradientUnits="userSpaceOnUse">
<stop stop-color="#52BBE8"/>
<stop offset="0.196" stop-color="#69C3EB"/>
<stop offset="0.6037" stop-color="#A3D8F1"/>
<stop offset="1" stop-color="#E1EFF8"/>
</linearGradient>
<linearGradient id="paint114_linear_690_652" x1="-10.1482" y1="98.0753" x2="47.9939" y2="8.30366" gradientUnits="userSpaceOnUse">
<stop stop-color="#52BBE8"/>
<stop offset="0.196" stop-color="#69C3EB"/>
<stop offset="0.6037" stop-color="#A3D8F1"/>
<stop offset="1" stop-color="#E1EFF8"/>
</linearGradient>
<linearGradient id="paint115_linear_690_652" x1="-7.6377" y1="99.7027" x2="50.5055" y2="9.92936" gradientUnits="userSpaceOnUse">
<stop stop-color="#52BBE8"/>
<stop offset="0.196" stop-color="#69C3EB"/>
<stop offset="0.6037" stop-color="#A3D8F1"/>
<stop offset="1" stop-color="#E1EFF8"/>
</linearGradient>
<linearGradient id="paint116_linear_690_652" x1="-16.1471" y1="94.1904" x2="41.9954" y2="4.41888" gradientUnits="userSpaceOnUse">
<stop stop-color="#52BBE8"/>
<stop offset="0.196" stop-color="#69C3EB"/>
<stop offset="0.6037" stop-color="#A3D8F1"/>
<stop offset="1" stop-color="#E1EFF8"/>
</linearGradient>
<linearGradient id="paint117_linear_690_652" x1="-15.6589" y1="94.5066" x2="42.4833" y2="4.73503" gradientUnits="userSpaceOnUse">
<stop stop-color="#52BBE8"/>
<stop offset="0.196" stop-color="#69C3EB"/>
<stop offset="0.6037" stop-color="#A3D8F1"/>
<stop offset="1" stop-color="#E1EFF8"/>
</linearGradient>
<linearGradient id="paint118_linear_690_652" x1="-18.1692" y1="92.8801" x2="39.9725" y2="3.10892" gradientUnits="userSpaceOnUse">
<stop stop-color="#52BBE8"/>
<stop offset="0.196" stop-color="#69C3EB"/>
<stop offset="0.6037" stop-color="#A3D8F1"/>
<stop offset="1" stop-color="#E1EFF8"/>
</linearGradient>
<linearGradient id="paint119_linear_690_652" x1="-18.6575" y1="92.564" x2="39.4847" y2="2.79232" gradientUnits="userSpaceOnUse">
<stop stop-color="#52BBE8"/>
<stop offset="0.196" stop-color="#69C3EB"/>
<stop offset="0.6037" stop-color="#A3D8F1"/>
<stop offset="1" stop-color="#E1EFF8"/>
</linearGradient>
<linearGradient id="paint120_linear_690_652" x1="-23.68" y1="89.3121" x2="34.4635" y2="-0.460923" gradientUnits="userSpaceOnUse">
<stop stop-color="#52BBE8"/>
<stop offset="0.196" stop-color="#69C3EB"/>
<stop offset="0.6037" stop-color="#A3D8F1"/>
<stop offset="1" stop-color="#E1EFF8"/>
</linearGradient>
<linearGradient id="paint121_linear_690_652" x1="40.4916" y1="130.873" x2="98.6337" y2="41.1013" gradientUnits="userSpaceOnUse">
<stop stop-color="#52BBE8"/>
<stop offset="0.196" stop-color="#69C3EB"/>
<stop offset="0.6037" stop-color="#A3D8F1"/>
<stop offset="1" stop-color="#E1EFF8"/>
</linearGradient>
<linearGradient id="paint122_linear_690_652" x1="40.9792" y1="131.191" x2="99.1225" y2="41.4174" gradientUnits="userSpaceOnUse">
<stop stop-color="#52BBE8"/>
<stop offset="0.196" stop-color="#69C3EB"/>
<stop offset="0.6037" stop-color="#A3D8F1"/>
<stop offset="1" stop-color="#E1EFF8"/>
</linearGradient>
<linearGradient id="paint123_linear_690_652" x1="32.959" y1="125.994" x2="91.1012" y2="36.2227" gradientUnits="userSpaceOnUse">
<stop stop-color="#52BBE8"/>
<stop offset="0.196" stop-color="#69C3EB"/>
<stop offset="0.6037" stop-color="#A3D8F1"/>
<stop offset="1" stop-color="#E1EFF8"/>
</linearGradient>
<linearGradient id="paint124_linear_690_652" x1="30.4481" y1="124.367" x2="88.5898" y2="34.5968" gradientUnits="userSpaceOnUse">
<stop stop-color="#52BBE8"/>
<stop offset="0.196" stop-color="#69C3EB"/>
<stop offset="0.6037" stop-color="#A3D8F1"/>
<stop offset="1" stop-color="#E1EFF8"/>
</linearGradient>
<linearGradient id="paint125_linear_690_652" x1="24.9367" y1="120.8" x2="83.0795" y2="31.0274" gradientUnits="userSpaceOnUse">
<stop stop-color="#52BBE8"/>
<stop offset="0.196" stop-color="#69C3EB"/>
<stop offset="0.6037" stop-color="#A3D8F1"/>
<stop offset="1" stop-color="#E1EFF8"/>
</linearGradient>
<linearGradient id="paint126_linear_690_652" x1="22.4259" y1="119.173" x2="80.5684" y2="29.4011" gradientUnits="userSpaceOnUse">
<stop stop-color="#52BBE8"/>
<stop offset="0.196" stop-color="#69C3EB"/>
<stop offset="0.6037" stop-color="#A3D8F1"/>
<stop offset="1" stop-color="#E1EFF8"/>
</linearGradient>
<linearGradient id="paint127_linear_690_652" x1="54.9995" y1="140.272" x2="113.143" y2="50.4981" gradientUnits="userSpaceOnUse">
<stop stop-color="#52BBE8"/>
<stop offset="0.196" stop-color="#69C3EB"/>
<stop offset="0.6037" stop-color="#A3D8F1"/>
<stop offset="1" stop-color="#E1EFF8"/>
</linearGradient>
<linearGradient id="paint128_linear_690_652" x1="57.5103" y1="141.897" x2="115.653" y2="52.1242" gradientUnits="userSpaceOnUse">
<stop stop-color="#52BBE8"/>
<stop offset="0.196" stop-color="#69C3EB"/>
<stop offset="0.6037" stop-color="#A3D8F1"/>
<stop offset="1" stop-color="#E1EFF8"/>
</linearGradient>
<linearGradient id="paint129_linear_690_652" x1="54.5114" y1="139.954" x2="112.654" y2="50.1817" gradientUnits="userSpaceOnUse">
<stop stop-color="#52BBE8"/>
<stop offset="0.196" stop-color="#69C3EB"/>
<stop offset="0.6037" stop-color="#A3D8F1"/>
<stop offset="1" stop-color="#E1EFF8"/>
</linearGradient>
<linearGradient id="paint130_linear_690_652" x1="49.0014" y1="136.385" x2="107.144" y2="46.6132" gradientUnits="userSpaceOnUse">
<stop stop-color="#52BBE8"/>
<stop offset="0.196" stop-color="#69C3EB"/>
<stop offset="0.6037" stop-color="#A3D8F1"/>
<stop offset="1" stop-color="#E1EFF8"/>
</linearGradient>
<linearGradient id="paint131_linear_690_652" x1="49.4897" y1="136.701" x2="107.632" y2="46.9295" gradientUnits="userSpaceOnUse">
<stop stop-color="#52BBE8"/>
<stop offset="0.196" stop-color="#69C3EB"/>
<stop offset="0.6037" stop-color="#A3D8F1"/>
<stop offset="1" stop-color="#E1EFF8"/>
</linearGradient>
<linearGradient id="paint132_linear_690_652" x1="46.4904" y1="134.758" x2="104.633" y2="44.9869" gradientUnits="userSpaceOnUse">
<stop stop-color="#52BBE8"/>
<stop offset="0.196" stop-color="#69C3EB"/>
<stop offset="0.6037" stop-color="#A3D8F1"/>
<stop offset="1" stop-color="#E1EFF8"/>
</linearGradient>
<linearGradient id="paint133_linear_690_652" x1="38.4689" y1="129.563" x2="96.6109" y2="39.7914" gradientUnits="userSpaceOnUse">
<stop stop-color="#52BBE8"/>
<stop offset="0.196" stop-color="#69C3EB"/>
<stop offset="0.6037" stop-color="#A3D8F1"/>
<stop offset="1" stop-color="#E1EFF8"/>
</linearGradient>
<linearGradient id="paint134_linear_690_652" x1="38.9578" y1="129.88" x2="97.1004" y2="40.1081" gradientUnits="userSpaceOnUse">
<stop stop-color="#52BBE8"/>
<stop offset="0.196" stop-color="#69C3EB"/>
<stop offset="0.6037" stop-color="#A3D8F1"/>
<stop offset="1" stop-color="#E1EFF8"/>
</linearGradient>
<linearGradient id="paint135_linear_690_652" x1="41.4687" y1="131.506" x2="99.6115" y2="41.7343" gradientUnits="userSpaceOnUse">
<stop stop-color="#52BBE8"/>
<stop offset="0.196" stop-color="#69C3EB"/>
<stop offset="0.6037" stop-color="#A3D8F1"/>
<stop offset="1" stop-color="#E1EFF8"/>
</linearGradient>
<linearGradient id="paint136_linear_690_652" x1="25.4251" y1="121.116" x2="83.5677" y2="31.3433" gradientUnits="userSpaceOnUse">
<stop stop-color="#52BBE8"/>
<stop offset="0.196" stop-color="#69C3EB"/>
<stop offset="0.6037" stop-color="#A3D8F1"/>
<stop offset="1" stop-color="#E1EFF8"/>
</linearGradient>
<linearGradient id="paint137_linear_690_652" x1="-1.1501" y1="103.904" x2="56.993" y2="14.1313" gradientUnits="userSpaceOnUse">
<stop stop-color="#52BBE8"/>
<stop offset="0.196" stop-color="#69C3EB"/>
<stop offset="0.6037" stop-color="#A3D8F1"/>
<stop offset="1" stop-color="#E1EFF8"/>
</linearGradient>
<linearGradient id="paint138_linear_690_652" x1="-7.14831" y1="100.018" x2="50.9931" y2="10.247" gradientUnits="userSpaceOnUse">
<stop stop-color="#52BBE8"/>
<stop offset="0.196" stop-color="#69C3EB"/>
<stop offset="0.6037" stop-color="#A3D8F1"/>
<stop offset="1" stop-color="#E1EFF8"/>
</linearGradient>
<linearGradient id="paint139_linear_690_652" x1="-9.65998" y1="98.3922" x2="48.4828" y2="8.61972" gradientUnits="userSpaceOnUse">
<stop stop-color="#52BBE8"/>
<stop offset="0.196" stop-color="#69C3EB"/>
<stop offset="0.6037" stop-color="#A3D8F1"/>
<stop offset="1" stop-color="#E1EFF8"/>
</linearGradient>
<linearGradient id="paint140_linear_690_652" x1="-15.1697" y1="94.823" x2="42.9727" y2="5.05161" gradientUnits="userSpaceOnUse">
<stop stop-color="#52BBE8"/>
<stop offset="0.196" stop-color="#69C3EB"/>
<stop offset="0.6037" stop-color="#A3D8F1"/>
<stop offset="1" stop-color="#E1EFF8"/>
</linearGradient>
<linearGradient id="paint141_linear_690_652" x1="-17.6809" y1="93.1966" x2="40.4612" y2="3.42515" gradientUnits="userSpaceOnUse">
<stop stop-color="#52BBE8"/>
<stop offset="0.196" stop-color="#69C3EB"/>
<stop offset="0.6037" stop-color="#A3D8F1"/>
<stop offset="1" stop-color="#E1EFF8"/>
</linearGradient>
<linearGradient id="paint142_linear_690_652" x1="-14.6819" y1="95.1396" x2="43.4603" y2="5.36768" gradientUnits="userSpaceOnUse">
<stop stop-color="#52BBE8"/>
<stop offset="0.196" stop-color="#69C3EB"/>
<stop offset="0.6037" stop-color="#A3D8F1"/>
<stop offset="1" stop-color="#E1EFF8"/>
</linearGradient>
<linearGradient id="paint143_linear_690_652" x1="46.979" y1="135.075" x2="105.121" y2="45.3035" gradientUnits="userSpaceOnUse">
<stop stop-color="#52BBE8"/>
<stop offset="0.196" stop-color="#69C3EB"/>
<stop offset="0.6037" stop-color="#A3D8F1"/>
<stop offset="1" stop-color="#E1EFF8"/>
</linearGradient>
<linearGradient id="paint144_linear_690_652" x1="49.9782" y1="137.018" x2="108.121" y2="47.2459" gradientUnits="userSpaceOnUse">
<stop stop-color="#52BBE8"/>
<stop offset="0.196" stop-color="#69C3EB"/>
<stop offset="0.6037" stop-color="#A3D8F1"/>
<stop offset="1" stop-color="#E1EFF8"/>
</linearGradient>
<linearGradient id="paint145_linear_690_652" x1="33.447" y1="126.311" x2="91.5896" y2="36.539" gradientUnits="userSpaceOnUse">
<stop stop-color="#52BBE8"/>
<stop offset="0.196" stop-color="#69C3EB"/>
<stop offset="0.6037" stop-color="#A3D8F1"/>
<stop offset="1" stop-color="#E1EFF8"/>
</linearGradient>
<linearGradient id="paint146_linear_690_652" x1="30.9365" y1="124.684" x2="89.0782" y2="34.9132" gradientUnits="userSpaceOnUse">
<stop stop-color="#52BBE8"/>
<stop offset="0.196" stop-color="#69C3EB"/>
<stop offset="0.6037" stop-color="#A3D8F1"/>
<stop offset="1" stop-color="#E1EFF8"/>
</linearGradient>
<linearGradient id="paint147_linear_690_652" x1="31.4246" y1="125.001" x2="89.5667" y2="35.2296" gradientUnits="userSpaceOnUse">
<stop stop-color="#52BBE8"/>
<stop offset="0.196" stop-color="#69C3EB"/>
<stop offset="0.6037" stop-color="#A3D8F1"/>
<stop offset="1" stop-color="#E1EFF8"/>
</linearGradient>
<linearGradient id="paint148_linear_690_652" x1="33.9351" y1="126.627" x2="92.0778" y2="36.8553" gradientUnits="userSpaceOnUse">
<stop stop-color="#52BBE8"/>
<stop offset="0.196" stop-color="#69C3EB"/>
<stop offset="0.6037" stop-color="#A3D8F1"/>
<stop offset="1" stop-color="#E1EFF8"/>
</linearGradient>
<linearGradient id="paint149_linear_690_652" x1="1.84977" y1="105.846" x2="59.9915" y2="16.0748" gradientUnits="userSpaceOnUse">
<stop stop-color="#52BBE8"/>
<stop offset="0.196" stop-color="#69C3EB"/>
<stop offset="0.6037" stop-color="#A3D8F1"/>
<stop offset="1" stop-color="#E1EFF8"/>
</linearGradient>
<linearGradient id="paint150_linear_690_652" x1="-9.17141" y1="98.7081" x2="48.9701" y2="8.93717" gradientUnits="userSpaceOnUse">
<stop stop-color="#52BBE8"/>
<stop offset="0.196" stop-color="#69C3EB"/>
<stop offset="0.6037" stop-color="#A3D8F1"/>
<stop offset="1" stop-color="#E1EFF8"/>
</linearGradient>
<linearGradient id="paint151_linear_690_652" x1="-6.1721" y1="100.651" x2="51.9706" y2="10.8791" gradientUnits="userSpaceOnUse">
<stop stop-color="#52BBE8"/>
<stop offset="0.196" stop-color="#69C3EB"/>
<stop offset="0.6037" stop-color="#A3D8F1"/>
<stop offset="1" stop-color="#E1EFF8"/>
</linearGradient>
<linearGradient id="paint152_linear_690_652" x1="63.5105" y1="145.78" x2="121.651" y2="56.0099" gradientUnits="userSpaceOnUse">
<stop stop-color="#52BBE8"/>
<stop offset="0.196" stop-color="#69C3EB"/>
<stop offset="0.6037" stop-color="#A3D8F1"/>
<stop offset="1" stop-color="#E1EFF8"/>
</linearGradient>
<linearGradient id="paint153_linear_690_652" x1="57.9999" y1="142.213" x2="116.142" y2="52.4411" gradientUnits="userSpaceOnUse">
<stop stop-color="#52BBE8"/>
<stop offset="0.196" stop-color="#69C3EB"/>
<stop offset="0.6037" stop-color="#A3D8F1"/>
<stop offset="1" stop-color="#E1EFF8"/>
</linearGradient>
<linearGradient id="paint154_linear_690_652" x1="55.4887" y1="140.587" x2="113.631" y2="50.8149" gradientUnits="userSpaceOnUse">
<stop stop-color="#52BBE8"/>
<stop offset="0.196" stop-color="#69C3EB"/>
<stop offset="0.6037" stop-color="#A3D8F1"/>
<stop offset="1" stop-color="#E1EFF8"/>
</linearGradient>
<linearGradient id="paint155_linear_690_652" x1="47.4674" y1="135.392" x2="105.611" y2="45.6194" gradientUnits="userSpaceOnUse">
<stop stop-color="#52BBE8"/>
<stop offset="0.196" stop-color="#69C3EB"/>
<stop offset="0.6037" stop-color="#A3D8F1"/>
<stop offset="1" stop-color="#E1EFF8"/>
</linearGradient>
<linearGradient id="paint156_linear_690_652" x1="41.9568" y1="131.823" x2="100.1" y2="42.0504" gradientUnits="userSpaceOnUse">
<stop stop-color="#52BBE8"/>
<stop offset="0.196" stop-color="#69C3EB"/>
<stop offset="0.6037" stop-color="#A3D8F1"/>
<stop offset="1" stop-color="#E1EFF8"/>
</linearGradient>
<linearGradient id="paint157_linear_690_652" x1="39.4459" y1="130.196" x2="97.5884" y2="40.4242" gradientUnits="userSpaceOnUse">
<stop stop-color="#52BBE8"/>
<stop offset="0.196" stop-color="#69C3EB"/>
<stop offset="0.6037" stop-color="#A3D8F1"/>
<stop offset="1" stop-color="#E1EFF8"/>
</linearGradient>
<linearGradient id="paint158_linear_690_652" x1="7.35987" y1="109.416" x2="65.5031" y2="19.6426" gradientUnits="userSpaceOnUse">
<stop stop-color="#52BBE8"/>
<stop offset="0.196" stop-color="#69C3EB"/>
<stop offset="0.6037" stop-color="#A3D8F1"/>
<stop offset="1" stop-color="#E1EFF8"/>
</linearGradient>
<linearGradient id="paint159_linear_690_652" x1="-0.661564" y1="104.22" x2="57.4809" y2="14.4478" gradientUnits="userSpaceOnUse">
<stop stop-color="#52BBE8"/>
<stop offset="0.196" stop-color="#69C3EB"/>
<stop offset="0.6037" stop-color="#A3D8F1"/>
<stop offset="1" stop-color="#E1EFF8"/>
</linearGradient>
</defs>
</svg>
