<svg width="17" height="17" viewBox="0 0 17 17" fill="none" xmlns="http://www.w3.org/2000/svg">
<path d="M16.8974 16.0136L12.1774 11.2936C13.3116 9.93192 13.8772 8.18537 13.7565 6.41729C13.6358 4.64921 12.8381 2.99572 11.5294 1.8008C10.2206 0.605876 8.50156 -0.0384784 6.72982 0.00177886C4.95808 0.0420361 3.27007 0.763805 2.01694 2.01694C0.763805 3.27007 0.0420361 4.95808 0.00177886 6.72982C-0.0384784 8.50156 0.605876 10.2206 1.8008 11.5294C2.99572 12.8381 4.64921 13.6358 6.41729 13.7565C8.18537 13.8772 9.93192 13.3116 11.2936 12.1774L16.0136 16.8974L16.8974 16.0136ZM1.27235 6.89735C1.27235 5.78483 1.60225 4.69729 2.22033 3.77227C2.83842 2.84724 3.71692 2.12627 4.74476 1.70053C5.77259 1.27478 6.90359 1.16339 7.99473 1.38043C9.08588 1.59747 10.0882 2.1332 10.8748 2.91987C11.6615 3.70654 12.1972 4.70882 12.4143 5.79997C12.6313 6.89111 12.5199 8.02211 12.0942 9.04994C11.6684 10.0778 10.9475 10.9563 10.0224 11.5744C9.09741 12.1925 8.00987 12.5224 6.89735 12.5224C5.40601 12.5207 3.97624 11.9275 2.9217 10.873C1.86717 9.81847 1.274 8.38869 1.27235 6.89735Z" fill="white"/>
</svg>
