<svg width="60" height="60" viewBox="0 0 60 60" fill="none" xmlns="http://www.w3.org/2000/svg">
<g clip-path="url(#clip0_906_145)">
<path d="M30 0C13.44 0 0 13.44 0 30C0 46.56 13.44 60 30 60C46.56 60 60 46.56 60 30C60 13.44 46.56 0 30 0ZM30 47.76C20.19 47.76 12.24 39.81 12.24 30C12.24 20.19 20.19 12.24 30 12.24C39.81 12.24 47.76 20.19 47.76 30C47.76 39.81 39.81 47.76 30 47.76ZM30 14.43C21.42 14.43 14.43 21.42 14.43 30C14.43 38.58 21.42 45.57 30 45.57C38.58 45.57 45.57 38.58 45.57 30C45.57 21.42 38.58 14.43 30 14.43ZM24.21 38.85V21.15L39.54 30L24.21 38.85Z" fill="white"/>
</g>
<defs>
<clipPath id="clip0_906_145">
<rect width="60" height="60" fill="white"/>
</clipPath>
</defs>
</svg>
